<svg id="work" xmlns="http://www.w3.org/2000/svg" viewBox="0 0 594 401.76">
  <title>clouds</title>
  <path d="M0,0V401.76H594V0ZM14.31,92.4c.64.41,1.23.79,1.71,1.12a82.92,82.92,0,0,0,12,6.83,88.46,88.46,0,0,0,27.87,7.82,92.93,92.93,0,0,0,10.28.57A89.29,89.29,0,0,0,110.75,97a81.09,81.09,0,0,0,11.44-8c.89-.75,1.68-1.54,2.37-2.24a14.26,14.26,0,0,1,2-1.81h.21c1.85,0,4.79.87,7.39,1.64a52.59,52.59,0,0,0,6.63,1.65c1,.16,2.1.31,3.16.45a44,44,0,0,0,.08,31.14c5.87,15.33,20.54,25.62,36.51,25.62a36.26,36.26,0,0,0,23.54-8.69,42.45,42.45,0,0,0,14.69-30.45,43.51,43.51,0,0,0-6.6-25.53,128.12,128.12,0,0,0,25.67-13.16c12.32,27.38,44.26,37.14,68.2,37.14A91.31,91.31,0,0,0,322,103.43a84.28,84.28,0,0,0,23.17-7.59c1.11-.56,2.17-1.24,3.21-1.9.74-.48,1.84-1.18,2.63-1.59.12.71.18,1.9.23,2.68a26,26,0,0,0,.46,4.16,58.76,58.76,0,0,0,2.87,9.23A56.5,56.5,0,0,0,366,126.23a50.55,50.55,0,0,0,73.47-.37,46.46,46.46,0,0,0,6.89-10.36,47.9,47.9,0,0,1,3.62-6.1c1.08-1.2,6.65-2.41,9.33-3a56.83,56.83,0,0,0,6.87-1.78A107.13,107.13,0,0,0,490.86,92c7.17-5,12.23-10.79,17.59-16.94l2-2.3c1.78-2,7-3.34,11.14-4.39a69.12,69.12,0,0,0,7.61-2.24,133.5,133.5,0,0,0,26.71-14c8.64-5.9,19.47-15,27.64-27.47V271.6c-.47-.2-1.12-.42-2-.74a660.88,660.88,0,0,0-65.1-19.23c-42.33-10.28-85.91-15.85-129.35-18.46a809.67,809.67,0,0,0-129.72,2.43,748.79,748.79,0,0,0-130.92,24.71c-40.28,11.5-81.54,27.85-116,52.09V89.8C11.73,90.75,13.07,91.61,14.31,92.4Z"/>
</svg>
