<svg id="work" xmlns="http://www.w3.org/2000/svg" viewBox="0 0 594 401.76">
  <title>clouds</title>
  <path d="M185.37,82.1c-19.72-5.51-32.57,18.63-23.13,34.44,11,18.44,37.25,9.85,38.9-10.37C202,95.71,195.75,85,185.37,82.1ZM0,0V401.76H594V0ZM361.15,10.44c.23.52.48,1,.74,1.53-2,3.21-5.22,6-7.22,9.46a53.3,53.3,0,0,0-8.18-6.74,64.86,64.86,0,0,0-6.78-4.25Zm-92.24,0h4.45a28.93,28.93,0,0,0-5.44,2.48C268.26,12.1,268.59,11.27,268.91,10.44ZM583.56,285.38a282,282,0,0,0-29.42-11.07,609.92,609.92,0,0,0-59.81-16.53c-43.51-9.56-86.19-14.88-126.87-15.82-9-.2-17.88-.31-26.32-.31-37.44,0-70.87,2-102.22,6.25C193.7,254,153.81,263.21,117,276.17c-48.16,16.94-82.24,35.7-106.53,58.69V73.57A37.55,37.55,0,0,0,14.88,78,69.58,69.58,0,0,0,31.64,89.73a78,78,0,0,0,42.15,7.63A75,75,0,0,0,111.57,83c3.53-2.66,9.18-10.77,12.87-11.11,3-.28,7.89,2.21,11,2.88A130.18,130.18,0,0,0,150.26,77c34.2,3.24,69.49-7.55,94.69-31.19A37.94,37.94,0,0,0,253,72.17C266.3,89.56,290.22,96.44,311.31,95c19-1.3,39.92-9.73,50-26.79,1.81,1.89,1.94,1.69,1.91,3.91,0,3.92-1.9,8.1-2.06,12.17A48.44,48.44,0,0,0,362.38,97,45.53,45.53,0,0,0,375,119.49,39.67,39.67,0,0,0,426,123a44.43,44.43,0,0,0,15.29-21c1.31-3.73,1.74-7.46,2.47-11.3s-.58-2.32,2.79-3.82c2.35-1,5-1.52,7.46-2.42a75.46,75.46,0,0,0,16.18-8.25c3.69-2.51,7.44-8,11.24-9.84,2.09-1,6.35-.58,8.68-.89,3.65-.48,7.28-1.08,10.89-1.83a144.27,144.27,0,0,0,20.78-5.9c23.2-8.55,45.71-24.29,56.28-47.29h5.49Z"/>
</svg>
