<svg id="work" xmlns="http://www.w3.org/2000/svg" viewBox="0 0 594 401.76">
  <title>clouds</title>
  <path d="M396.06,83.87c-2.92,8.56,10.12,13,12.19,3.93C410.06,79.88,398.87,75.94,396.06,83.87ZM293.87,21c-16.26,3.85-33.45,18.89-25.49,37.12,7.83,17.94,31.85,23.29,49.2,18.9s34.14-22.22,23-40.34C331.37,21.44,310.17,17.15,293.87,21ZM0,0V401.76H594V0ZM583.56,348.1c-.93-.74-1.86-1.42-2.73-2-.5-.36-1-.7-1.44-1.05A181.18,181.18,0,0,0,564,334.78a310.38,310.38,0,0,0-61.39-28.1c-49.89-16.7-104.38-25.16-161.94-25.16a597.45,597.45,0,0,0-88.57,6.68c-45.68,6.88-83.84,17.94-116.63,33.82C97,340.62,71.6,363,57.82,390.33l-.5,1H10.44V10.44H32.88A12.77,12.77,0,0,0,28.68,14,38.37,38.37,0,0,0,21.6,41.53c3.41,23,27.27,35.88,49,33.81C90.79,73.41,111.36,57.1,110,35.22c38.38,28,102.36,18.7,125.82-24.45l.18-.33H389.8a58.34,58.34,0,0,0,3.9,5.47C413.43,40,447.52,49.13,477.59,47,504.08,45,533.9,34,548.44,10.44h35.12Z"/>
</svg>
