<svg id="work" xmlns="http://www.w3.org/2000/svg" viewBox="0 0 594 401.76">
  <title>clouds</title>
  <path d="M401.77,74.14a11.38,11.38,0,0,0-10.82,8,11.94,11.94,0,0,0,1.45,10.94,12.54,12.54,0,0,0,10.06,5.15c5.44,0,9.78-3.61,11.06-9.21a11.94,11.94,0,0,0-2.24-10.27A12.28,12.28,0,0,0,401.77,74.14Zm-96.2-59.87a56.36,56.36,0,0,0-12.94,1.48c-12.54,3-23.82,11.24-28.73,21.08a26.9,26.9,0,0,0-.47,23.45c7.59,17.4,26.71,23.6,42.07,23.6a54.83,54.83,0,0,0,13.4-1.62c12.94-3.27,24.16-12.43,28.59-23.33,3.42-8.4,2.62-17.07-2.28-25C337.78,21.6,323,14.27,305.57,14.27ZM0,0V401.76H594V0ZM583.56,325c-.63-.41-1.53-.87-2.83-1.59-4-2.24-8-4.38-12.13-6.41a418.23,418.23,0,0,0-112.16-36.23c-39-6.84-78.29-10.78-117.93-10.78A687.7,687.7,0,0,0,221.8,280.3c-38,6.54-76.63,17.86-111.25,35s-65.87,39.05-83.77,74c-.29.69-.57,1.38-.85,2.07H10.44V10.44H24.62l-.24.29a44,44,0,0,0-8.12,31.59A42.93,42.93,0,0,0,34.2,71,54.89,54.89,0,0,0,66,81c1.71,0,3.42-.08,5.1-.24,19.54-1.87,39.7-15.75,43.7-36a95.62,95.62,0,0,0,46.78,11.87c34.26,0,64.55-16.55,79.06-43.25l1.51-2.86h141.4l.73,1.26a59.14,59.14,0,0,0,5.27,7.62c17.07,20.88,46.74,33.34,79.39,33.34,3,0,6.08-.11,9.07-.32,34.35-2.5,62.77-17.69,76-40.64l.72-1.26h28.84Z"/>
</svg>
