<svg id="work" xmlns="http://www.w3.org/2000/svg" viewBox="0 0 594 401.76">
  <title>clouds</title>
  <path d="M0,0V401.76H594V0ZM581.77,268.6l-1-.27-2.91-1.07c-2-.73-4-1.47-5.94-2.16a602.84,602.84,0,0,0-63.78-17.91,681.93,681.93,0,0,0-124.37-16.86c-16.78-.68-32.18-1-47.06-1a766.86,766.86,0,0,0-86.22,4.49c-47.93,5.39-89.69,13.73-127.67,25.48-47.1,14.59-83,31.15-112.38,51.92V82.63c2.11,2.49,6.4,4.9,8.65,6.45a78.62,78.62,0,0,0,11.17,6.39,83.52,83.52,0,0,0,26.18,7.33A84.9,84.9,0,0,0,108,92.35a75.05,75.05,0,0,0,10.68-7.45c2.52-2.11,4.4-5.06,7.32-5.29,4.47-.34,11,2.63,15.58,3.33,3.52.54,7,.93,10.59,1.2a38.69,38.69,0,0,0-3.12,33.8c8,20.81,33.82,29.59,51.53,14.73,16-13.42,17.21-39.54,2.65-54.47a123.79,123.79,0,0,0,37.26-19.05,37.58,37.58,0,0,0,1.71,5c12.18,29.31,50.16,39,78.8,33.94A78.83,78.83,0,0,0,342.73,91c4.19-2.11,9.75-7.88,13-1.44,1.05,2,.68,6.13,1.2,8.43a53.58,53.58,0,0,0,2.6,8.39,50.93,50.93,0,0,0,10.35,16.1,45.15,45.15,0,0,0,65.63-.33c4.56-4.86,6.34-10.86,10.12-16,3-4.06,13.53-4.75,18.69-6.62a102,102,0,0,0,23.43-12c7.48-5.2,12.7-11.64,18.63-18.38,4.25-4.84,14.6-5.67,20.83-8.09a127.35,127.35,0,0,0,25.63-13.4c12.59-8.59,23.93-20.08,30.69-33.89V269.09C583,268.92,582.4,268.76,581.77,268.6Z"/>
</svg>
