<svg id="work" xmlns="http://www.w3.org/2000/svg" viewBox="0 0 594 401.76">
  <title>clouds</title>
  <path d="M0,0V401.76H594V0ZM355.66,11.37c-.41.5-.85,1-1.3,1.54l-.47.54c-1.27-1-2.63-2-4.06-3h5.43ZM10.44,81.29l.72.66A75,75,0,0,0,29.22,94.56a82.93,82.93,0,0,0,37,8.57c2.71,0,5.45-.13,8.14-.39a79.9,79.9,0,0,0,40.51-15.45,43.09,43.09,0,0,0,5.14-5c1.42-1.52,4-4.28,5.24-5a27.13,27.13,0,0,1,4.55,1.36,39.7,39.7,0,0,0,4.54,1.4,131.59,131.59,0,0,0,15.46,2.39c4.12.39,8.31.59,12.46.59h.47a28.48,28.48,0,0,0-4.94,6.41c-5.33,9.39-5.38,21.13-.14,29.91,4.86,8.13,12.78,12.79,21.75,12.79a27.68,27.68,0,0,0,27.18-25.51A29,29,0,0,0,192.65,79.4,125.8,125.8,0,0,0,240.21,57a45.13,45.13,0,0,0,8.5,18.49c12,15.74,33.4,25.14,57.14,25.14,1.94,0,3.9-.07,5.82-.2,14.19-1,31.55-6.09,44.18-17.25,0,.31-.05.63-.06,1a53.41,53.41,0,0,0,1.33,14.12,51.13,51.13,0,0,0,14.11,25.17,45.19,45.19,0,0,0,31.46,12.69,44.34,44.34,0,0,0,26.53-8.73,50.08,50.08,0,0,0,17.18-23.58,56.29,56.29,0,0,0,2.2-9.41c.15-.89.31-1.77.48-2.67v0c.92-.37,2-.68,3.19-1s2.39-.68,3.63-1.14a81,81,0,0,0,17.34-8.84,39.64,39.64,0,0,0,5.76-5.2,25.82,25.82,0,0,1,4.72-4.22,22.17,22.17,0,0,1,3.6-.24,29.69,29.69,0,0,0,3.5-.19c3.83-.5,7.62-1.13,11.28-1.89a151.49,151.49,0,0,0,21.56-6.12c16.7-6.16,46.64-21,59.9-51.4V282c-.31-.19-.67-.39-1.12-.63-4.86-2.67-11-4.19-16.13-6a543.92,543.92,0,0,0-61.71-17.74,725.72,725.72,0,0,0-126.34-17,782.85,782.85,0,0,0-128.45,3.81c-43,5-85.72,13.15-127,26.34-39.6,12.65-79.58,30-112.35,56Z"/>
</svg>
