<svg id="work" xmlns="http://www.w3.org/2000/svg" viewBox="0 0 594 401.76">
  <title>clouds</title>
  <path d="M0,0V401.76H594V0ZM583.56,291.62c-.39-.22-.87-.47-1.49-.76A264.09,264.09,0,0,0,552,279.44a607.45,607.45,0,0,0-59.28-16.38c-41.11-9-83.72-14.72-125.83-15.7-42.72-1-85.29.2-127.7,5.89-41,5.51-81.78,14.27-120.88,28-37.85,13.31-79,31.8-107.82,60.63V73.4c.49.56,1,1.09,1.45,1.61l.28.3c13.22,14.5,32.92,22.81,54.05,22.81,2.06,0,4.15-.08,6.2-.25,21-1.69,40.27-11.94,51.49-27.07a121.42,121.42,0,0,0,30.82,5.8c2.44.15,4.93.22,7.39.22,32,0,62-12.4,82.74-32.82-1.88,15.17,5.58,30.88,20.43,41,11.25,7.66,25.57,11.88,40.34,11.88a77.65,77.65,0,0,0,27.35-5c18.85-7.19,36.68-24.57,34-47.22-1.87-15.9-12.85-27.27-25.27-34.26h20.15l.4.86a78.22,78.22,0,0,0,9.42,15.14c-.2.35-.4.7-.55,1a23.14,23.14,0,0,0-1.94,3.95,29.3,29.3,0,0,0-1.38,11.29,30.35,30.35,0,0,0,4.51,13.58,46.31,46.31,0,0,0-11,30.22c.12,23.72,19,43.75,41.24,43.75a38.47,38.47,0,0,0,9.2-1.12,40.69,40.69,0,0,0,26.4-21,47.76,47.76,0,0,0,4.34-32.64,58.25,58.25,0,0,0,10-4.31c1.38-.76,2.48-1.52,3.45-2.18,2-1.38,2.53-1.67,3.69-1.67h.15c2.19.06,4.36.09,6.46.09,23.46,0,42.6-3.49,60.23-11,23.51-10,41.43-26,50.47-45.14l.4-.87h6.2ZM267.26,10.44h2.4c-.42.24-.84.47-1.25.72-.66.39-1.3.79-1.93,1.2Z"/>
</svg>
