<svg id="work" xmlns="http://www.w3.org/2000/svg" viewBox="0 0 594 401.76">
  <title>clouds</title>
  <path d="M402.86,52.39c-14.44,0-26.64,9.12-31.08,23.24l0,.11c-4.43,15.23,1.29,31.6,13.93,39.81a30.41,30.41,0,0,0,16.75,5.23c9.71,0,19.23-5.26,25.46-14.06a36,36,0,0,0,4.94-32.6C428.11,60.71,416.63,52.39,402.86,52.39ZM0,0V401.76H594V0ZM10.44,10.44h1.49A28.58,28.58,0,0,0,10.44,13Zm573.12,295c-1.45-1.23-3.59-1.85-5.69-2.8a453.45,453.45,0,0,0-61.11-22.15A593.61,593.61,0,0,0,397,259.22c-41.65-3.13-83.75-3.44-125.36.62a653.5,653.5,0,0,0-124,23.93c-37.94,11.33-76.38,28.32-107.39,53.28C32.8,343,25.39,349.38,19.24,356.62c-2.15,2.54-6.47,6.68-8.8,10.37V59.49c.27.53.54,1.06.83,1.58,10.46,18.52,31.52,30,55,30,1.56,0,3.13-.06,4.66-.17,21.79-1.51,41-13.22,50.39-30.32a113.34,113.34,0,0,0,27.38,6.87,111.63,111.63,0,0,0,13.45.81,110.76,110.76,0,0,0,54.06-13.93,96.47,96.47,0,0,0,38.93-39.85,12.72,12.72,0,0,0,1.3-2.74c.07-.19.13-.38.21-.55l.35-.78h26.17a56.26,56.26,0,0,0-16.66,9.28C250.19,33,246.9,54.29,258.65,70.29,268.41,83.57,286,91.5,305.79,91.5a70.59,70.59,0,0,0,9.35-.62c17-2.3,38.76-12.48,44.05-33.59S348.86,19,332.14,11.9c-1.23-.52-2.5-1-3.79-1.46h42.82l.53,1c7.07,13.68,19.07,25.51,34.68,34.21,18.36,10.23,40.11,15.64,62.89,15.64a143.3,143.3,0,0,0,26.58-2.49c32.8-6.23,58.65-23,71-46l1.25-2.38h15.49Z"/>
</svg>
