<svg id="work" xmlns="http://www.w3.org/2000/svg" viewBox="0 0 594 401.76">
  <title>clouds</title>
  <path d="M0,0V401.76H594V0ZM583.56,275.63a86.08,86.08,0,0,0-10.45-3.9c-1.58-.51-3.07-1-4.48-1.49a546.19,546.19,0,0,0-62.33-17.92A732.8,732.8,0,0,0,379,235.21c-14.2-.7-28.42-1.05-42.25-1.05a759.56,759.56,0,0,0-87.1,4.88c-47.37,5.49-89.26,14.19-128,26.57-46.16,14.74-82.6,32.66-111.21,54.69V78.72a3.85,3.85,0,0,0,.24.4C15.46,86,26.16,91.33,33.59,94.54A82,82,0,0,0,60.43,101C78.88,102.25,97.89,97.36,113,86.5c3.35-2.42,6.15-5.27,9.24-8,2.08-1.8,1.16-1.68,3.27-1.83s5.59,1.51,7.86,2a124.93,124.93,0,0,0,26.27,3.14,33.19,33.19,0,0,0-7.89,29.51c4.49,20.54,28.71,31.86,45.88,17.89,16-13,15.22-39.95-2-51.6a126.15,126.15,0,0,0,46.17-23A38.09,38.09,0,0,0,243,60c9.2,30.4,47.47,41.18,75.61,36.88A77.42,77.42,0,0,0,340.84,90a64.94,64.94,0,0,0,9.33-5.54c.8-.57,4.88-4.68,5.69-4.63,3.32.19,2,12,2.36,14.31A50.81,50.81,0,0,0,364.5,112c14.23,24.4,47.36,30.3,68.07,10.32a48.58,48.58,0,0,0,11.34-17.06c.69-1.75,1.11-6.13,2.31-7.45s6.53-1.74,8.45-2.32a95.25,95.25,0,0,0,25-11.56,72.86,72.86,0,0,0,9.5-7.48c2.56-2.39,5.32-7.35,8.17-8.9,2.56-1.39,6.95-1.33,9.78-2,4.51-1.09,9-2.36,13.36-3.86a129.58,129.58,0,0,0,25.8-12c15.45-9.43,28.79-22.58,36.33-39.2h1Z"/>
</svg>
