<svg id="work" xmlns="http://www.w3.org/2000/svg" viewBox="0 0 594 401.76">
  <title>clouds</title>
  <path d="M0,0V401.76H594V0ZM583.56,299c-.47-.21-.94-.4-1.37-.58s-1.06-.42-1.59-.66a457.91,457.91,0,0,0-61.84-22.42,598.1,598.1,0,0,0-120.87-21.46c-21.21-1.6-42-2.41-61.76-2.41-22.19,0-43.91,1-64.54,3A662.41,662.41,0,0,0,146.52,278.6C102.39,291.78,65.64,310,37.29,332.84c-6.95,5.59-15,12.38-21.66,20.28-.57.67-1.4,1.56-2.27,2.5s-1.93,2.1-2.92,3.22V64.15c1.33,2.78,3.68,5.28,5.72,7.53C30.12,87,51.58,94.14,72,92.49c19.41-1.57,39.28-11.31,49.81-28.17a114.83,114.83,0,0,0,33.28,6.89c43.32,2.67,89.07-19.5,106.36-60.75v0h21.3a58.74,58.74,0,0,0-11.56,5.36c-7.57,4.51-14.23,10.91-18,18.93-8.21,17.25.26,35.62,15.2,45.8,18,12.23,42.63,14,62.72,6.34,17-6.49,32.89-21.9,30.59-41.54-2.06-17.48-17.14-29.43-33-34.89h39.2a73.52,73.52,0,0,0,9.88,14.87c.38,1.57-2.76,5.74-3.42,7.75a23.76,23.76,0,0,0-1.12,9.21,26.53,26.53,0,0,0,6.11,14.54c-8.23,7.47-12.64,18.6-12.59,29.63.11,22.69,20.4,43.12,43.76,37.42,22.39-5.47,33-31.36,25.31-52a58.63,58.63,0,0,0,14.09-5.37c3.92-2.16,5.62-4.63,10-4.52,22.19.58,43.8-1.69,64.44-10.45,19.45-8.25,37.36-21.88,47-41h12.22Z"/>
</svg>
