<svg id="work" xmlns="http://www.w3.org/2000/svg" viewBox="0 0 594 401.76">
  <title>clouds</title>
  <path d="M0,0V401.76H594V0ZM25.53,94.23a84.11,84.11,0,0,0,26.41,8.94,86.35,86.35,0,0,0,56.73-10,77.45,77.45,0,0,0,9.71-6.64c1.69-1.36,4.71-5.52,6.67-6.06,2.19-.61,8.31,2.08,10.72,2.56A127.36,127.36,0,0,0,149.24,85a41.13,41.13,0,0,0-.12,38.25c9.81,18.57,33.71,25.41,51,12.69,18-13.21,20.51-40.72,6.24-57.57A133.27,133.27,0,0,0,240,60.92a42.2,42.2,0,0,0,2.61,6.39c13.53,26.83,48.69,36.06,76.35,31.9a81.21,81.21,0,0,0,23.1-7c3.72-1.78,4-3.1,7.33-1.52,1.37.65,5.42,2.65,6.32,4s.89,4.56,1.36,6.24a53.92,53.92,0,0,0,3.67,9.53,51.4,51.4,0,0,0,9,12.78,45.54,45.54,0,0,0,60.82,4.22,49.52,49.52,0,0,0,9.95-10.64c1.38-2,2.5-5.81,4.24-7.33,2.18-1.92,8.17-2.09,11.24-2.9,17.32-4.55,34.25-12.71,47.07-25.43,5.47-5.43,8.58-14.28,15.81-16.59A135.49,135.49,0,0,0,547.21,52c15-8.92,28.25-21.29,36.35-36.83V265.67a661.11,661.11,0,0,0-65.34-19.28c-39.62-9.63-82.24-15.72-130.3-18.61-16.85-1-33.86-1.53-50.56-1.53-27,0-53.89,1.34-80,4a759.86,759.86,0,0,0-131.86,24.89c-46.8,13.36-84.48,30.09-115,51.05V83C13.22,87.87,21,91.79,25.53,94.23Z"/>
</svg>
