<svg id="work" xmlns="http://www.w3.org/2000/svg" viewBox="0 0 594 401.76">
  <title>clouds</title>
  <path d="M74.76,16.47C56.37,10.09,30.88,28,44.25,47.81c11,16.31,41,13.3,45.77-6.8C92.37,30,85,20,74.76,16.47Zm237.29,17c-13.49-3.33-39,8.79-24.73,24.88,9.73,11,35.82,9.92,39.47-6.59C328.75,42.36,320.23,35.43,312.05,33.42ZM0,0V401.76H594V0ZM583.56,391.32h-15.9L566,388.65a96.65,96.65,0,0,0-5.8-8.87c-21.16-27.81-55.92-43.84-81.36-52.39a412.14,412.14,0,0,0-96-20.2c-16.2-1.39-32-2.09-46.86-2.09a430.22,430.22,0,0,0-52.78,3.14c-27,3.36-62.25,8.92-95.49,22.3C149,346.11,124,365,108.84,390l-.82,1.36H10.44V10.44h99.13a61.24,61.24,0,0,0,17.47,15c27.62,15.86,66.54,10.75,86.77-14.72a2.89,2.89,0,0,0,.24-.25h194.8A62.62,62.62,0,0,0,428.2,25.62C458.38,41.11,504,38.79,527.79,12.33c.56-.61,1.1-1.25,1.64-1.89h54.13Z"/>
</svg>
