<svg id="work" xmlns="http://www.w3.org/2000/svg" viewBox="0 0 594 401.76">
  <title>clouds</title>
  <path d="M313.35,28.17a26.17,26.17,0,0,0-6.23-.71c-10.29,0-23.6,5.26-28,15-1.65,3.65-3.29,11,4.14,19.43,5,5.66,13.45,9,22.57,9,13.5,0,23.79-7.08,26.23-18.1C334.67,40.45,324.36,30.89,313.35,28.17ZM0,0V401.76H594V0ZM583.56,355.66c-1.86-2.59-5-4.52-7.4-6.32-4.81-3.59-9.85-6.84-15-9.93a303.07,303.07,0,0,0-60.32-27.61c-78.83-26.38-166.18-30.58-248-18.26-39.77,6-78.77,15.76-115.09,33.34-29.95,14.49-58.63,34.31-74.38,64.44h-53V10.44H60.06C50.57,12.37,42,18.24,37.82,26s-3.51,16.73,2,24.82S54.88,63.71,65.63,63.71c14.66,0,26.58-8.62,29.65-21.45l0-.13c2.79-13.09-5.11-26-18.77-30.76a28.1,28.1,0,0,0-3.44-.93h29.68l1.34,1.79A66.46,66.46,0,0,0,124.35,30.1a75.29,75.29,0,0,0,37.45,9.74c22.59,0,43-9.29,56-25.51a11.7,11.7,0,0,0,1.37-1.74l.21-.3,1.42-1.85h181.1l1.49,1.9a67,67,0,0,0,22.33,18.08c12.86,6.6,28.61,10.24,44.35,10.24,25.13,0,47.63-9,61.71-24.7,1-1.11,2-2.29,3.05-3.61l1.5-1.91h47.22Z"/>
</svg>
