<svg id="work" xmlns="http://www.w3.org/2000/svg" viewBox="0 0 594 401.76">
  <title>clouds</title>
  <path d="M376.93,77.25c-3.59,12.36.68,26.62,11.69,33.78,23.16,15.06,47.27-12,39.12-35.12C418.89,50.8,384.78,52.29,376.93,77.25ZM330,16.87a55.17,55.17,0,0,0-6.12-2.22c-17.84-5.36-39.33-2.74-54,9.25C256.6,34.76,252.5,52.8,263,67.09,274.4,82.61,296.14,88,314.42,85.53,331.1,83.27,349.56,73.5,354,56S345.27,23.33,330,16.87ZM0,0V401.76H594V0ZM10.44,10.44H19c-4.75,3.81-7.35,13.85-8.23,18.91-.16.89-.27,1.78-.37,2.67ZM583.56,318.51c-4.45-2.49-8.3-4.52-12.07-6.38-34.49-17-73.78-29.72-113.62-36.7-41.68-7.31-80.56-10.86-118.86-10.86A697.3,697.3,0,0,0,221.38,275c-41.69,7.17-79.62,19.09-112.73,35.43-27,13.35-65.38,35.79-86.18,76.37l-.11.21-1.76,4.33H10.44V41.21A44.8,44.8,0,0,0,16,58.41C26.71,77.41,49.26,87,70.51,85.55c20.08-1.4,40.14-12.78,48.12-31.89a107.66,107.66,0,0,0,30.67,8.46C189.52,67,231.69,48.53,250.45,11.73a5.8,5.8,0,0,0,.67-1.29H377.29C384.5,23.56,396,33.73,409,41c25.71,14.33,57.12,18,85.84,12.56,26.22-5,54-18.67,67.12-43.09h21.59Z"/>
</svg>
