<svg id="work" xmlns="http://www.w3.org/2000/svg" viewBox="0 0 594 401.76">
  <title>clouds</title>
  <path d="M0,0V401.76H594V0ZM10.44,87c4.7,4.36,11.64,8.5,21,12.55a86.84,86.84,0,0,0,28.61,6.87c2,.14,4.06.21,6.08.21a86,86,0,0,0,50-15.7A78.8,78.8,0,0,0,123,85.11c.91-.83,1.83-1.67,2.77-2.49l.5-.44c.72.17,1.86.56,2.61.81a31.32,31.32,0,0,0,3.31,1,141,141,0,0,0,17.51,2.78,39.18,39.18,0,0,0-3.23,25.75c3.58,16.41,18,28.32,34.18,28.32A32.05,32.05,0,0,0,201,133.45c8.94-7.28,14-18.88,13.42-31a37.77,37.77,0,0,0-8.25-22.33,131,131,0,0,0,32.4-16.26c9.66,27.15,40.68,39.34,67.76,39.34a87.13,87.13,0,0,0,13.08-1,82.56,82.56,0,0,0,23.81-7.34,70.45,70.45,0,0,0,9.58-5.63c0,.6,0,1.14,0,1.56a25.37,25.37,0,0,0,.12,4.17,55.73,55.73,0,0,0,6.94,19.73,50.27,50.27,0,0,0,43.17,25,47.82,47.82,0,0,0,33.32-13.54,54.46,54.46,0,0,0,12.61-19,24.36,24.36,0,0,0,1-3.58c.11-.51.26-1.22.42-1.82.83-.19,1.94-.38,2.64-.5a27.2,27.2,0,0,0,3.28-.7,100,100,0,0,0,26.37-12.22,79.83,79.83,0,0,0,10.21-8,36.1,36.1,0,0,0,3.7-4.31,22.42,22.42,0,0,1,3.35-3.79,18.42,18.42,0,0,1,4.39-.85,36.51,36.51,0,0,0,4.08-.66c4.82-1.16,9.47-2.51,13.84-4a135.45,135.45,0,0,0,26.88-12.5c14.93-9.11,26.71-20.77,34.5-34V274.94c-1.71-.7-4.33-1.24-5.14-1.53-2.93-1.07-5.84-2.18-8.77-3.21a602.25,602.25,0,0,0-63.21-17.74,678.81,678.81,0,0,0-123.39-16.73c-44.23-1.79-88.41-1.5-132.46,3.45C207.7,244,165.2,251.67,123.92,264.45c-39.8,12.32-79.56,28.48-113.48,53.07Z"/>
</svg>
