<svg xmlns="http://www.w3.org/2000/svg" viewBox="0 0 381.6 381.6"><title>shadow-egg</title><g id="work"><path d="M0,0V381.6H381.6V0ZM244.32,237.07c-15.43-24.74-34.94-38.93-53.52-38.93-18.35,0-37.85,14.64-53.51,40.18-15.23,24.85-24.33,56.1-24.33,83.6,0,14.67,2.44,27.47,7.24,38.08H39a152.89,152.89,0,0,1-11.85-58.25c0-74,17.09-143.21,48.14-195s72-80.07,115.52-80.07S275.44,55,306.32,106.33c31.05,51.62,48.14,121,48.14,195.42A158.75,158.75,0,0,1,343.25,360H261.4c4.8-10.61,7.24-23.41,7.24-38.08C268.64,293.19,259.55,261.46,244.32,237.07Z"/></g></svg>