<svg xmlns="http://www.w3.org/2000/svg" viewBox="0 0 381.6 381.6"><title>shadow-egg</title><g id="work"><path d="M0,0V381.6H381.6V0ZM263.89,205.76c-20.31-32.49-46.95-51.12-73.09-51.12-25.94,0-52.58,19-73.08,52.2C98,238.74,86.25,280.18,86.25,317.7a167.32,167.32,0,0,0,5,42.3H59c-8.83-18.55-13.3-40.22-13.3-64.51,0-63.54,15.39-123.36,43.35-168.43,27.29-44,64.38-69.23,101.75-69.23s74.52,25.1,101.75,68.86c27.95,44.93,43.35,104.88,43.35,168.8,0,24.11-4.63,45.78-13.78,64.51H290.3a167.32,167.32,0,0,0,5.05-42.3C295.35,278.55,283.88,237.75,263.89,205.76Z"/></g></svg>