<svg xmlns="http://www.w3.org/2000/svg" viewBox="0 0 381.6 381.6"><title>shadow-egg</title><g id="work"><path d="M0,0V381.6H381.6V0ZM232.54,256.76c-12.2-19.14-27.41-30.12-41.74-30.12-14.14,0-29.35,11.33-41.73,31.1-12.15,19.41-19.41,43.7-19.41,65,0,15.25,3.48,27.77,10.35,37.27H37.36c-8.27-19.15-12.63-38.74-12.63-57,0-75.61,17.28-146.31,48.65-199.08s73-81.75,117.42-81.75S277,51.07,308.22,103.49C339.59,156.11,356.87,227,356.87,303c0,18.46-4.13,38.05-12,57H241.59c6.87-9.5,10.35-22,10.35-37.27C251.94,300.48,244.69,275.82,232.54,256.76Z"/></g></svg>