<svg xmlns="http://www.w3.org/2000/svg" viewBox="0 0 381.6 381.6"><title>shadow-egg</title><g id="work"><path d="M0,0V381.6H381.6V0ZM253,222.37c-17.5-28.11-40.17-44.23-62.19-44.23-21.75,0-44.41,16.66-62.17,45.7-17.21,28.14-27.48,64.3-27.48,96.72,0,14.69,1.95,27.94,5.81,39.44H45.66a142.3,142.3,0,0,1-14.58-61.81c0-70.57,16.89-136.91,47.56-186.79,30-48.75,70.86-76.71,112.16-76.71S273.05,62.5,303,111c30.68,49.74,47.57,116.23,47.57,187.21A146.94,146.94,0,0,1,336.67,360h-62c3.86-11.5,5.81-24.75,5.81-39.44C280.45,286.19,270.44,250.4,253,222.37Z"/></g></svg>