<svg xmlns="http://www.w3.org/2000/svg" viewBox="0 0 381.6 381.6"><title>shadow-egg</title><g id="work"><path d="M0,0V381.6H381.6V0ZM259.11,212.69c-18.71-30.54-43.61-48.05-68.31-48.05s-49.6,17.51-68.31,48S93,283.57,93,323.28A152.63,152.63,0,0,0,97.14,360H51.47a141.76,141.76,0,0,1-14.41-62.36c0-67.38,16.32-130.8,46-178.59,28.92-46.62,68.2-73.36,107.78-73.36s78.93,26.59,107.77,73c29.65,47.65,46,111.21,46,179a144.32,144.32,0,0,1-14,62.36H284.46a152.63,152.63,0,0,0,4.13-36.72C288.59,283.57,277.85,243.26,259.11,212.69Z"/></g></svg>