<svg id="work" xmlns="http://www.w3.org/2000/svg" viewBox="0 0 594 401.76">
  <title>waves</title>
  <path d="M.5,0V401.76h594V0ZM581.9,228.87l-.2.03-.99.153-1.983.309-3.464.552-4.243.693-5.54.926-6.559,1.115-1.275.216-.157.028-.572.1-7.341,1.77-4.545,1.1-6.879,1.7-3.884.958-13.637,3.364-1.1.275-2.171.544h0l-6.318,2.067L500.2,248.312l-19.772,6.472-2.655,1.085-3.677,1.5-9.49,3.88-17.025,6.961-2.006.829-.615.254h0l-26.582,13.417-.215.108-6.147,3.1h0l-21.107,12.869-5.77,3.518-3.511,2.141-9.906,7.3-7.007,5.161-10.4,7.66,0,0-13.485,12.114-8.112,7.287-6.769-3.275-9.144-4.424-10.373-5.019-.009,0-15.4-6.165L279.5,320.477l-2.308-.923-11.929-3.921-19.293-6.342-2.824-.747-2.87-.759-7.219-1.9-11.039-2.905-2.545-.669-6.67-1.753-2.952-.605-.016,0-10.456-2.129-5.42-1.1-3.408-.684-2.413-.477-1.524-.3-.328-.064-1.512-.291-1.3-.246-1.166-.216-1.087-.2-1.051-.188-1.051-.183-1.089-.186-1.17-.195-1.3-.214-1.521-.244-1.863-.292-2.431-.377-3.438-.524-2.91-.439-2.558-.386-10.567-1.576-2.982-.443-7.115-.654L119,286.4l-5.866-.531-2.838-.089-16.566-.524-13.446-.425-12.021.38-19.44.615h-.005l-1.531.156-14.03,1.431-13.97,1.423h0L13.1,289.974V11.993H581.9Z"/>
</svg>
