<svg id="work" xmlns="http://www.w3.org/2000/svg" viewBox="0 0 594 401.762">
  <title>waves</title>
  <path d="M0,0V401.762H594V0ZM581.4,12V264.577l-24.431,4.2-25.725,6.093-27.83,8.322-3.925,1.4-27.956,11.744-24.6,11.994-13.2,7.766-23.455,15.583-24.869,20.6-3.448,3.143L364.7,376.085l-13.089-10.868-.712-.469-24.5-15.275-16.828-8.655-13.677-6.568-16.323-6.616-22.7-8.539-.648-.211-19.139-5.718-16.426-4.493L205.8,305.006l-14.071-3.078-13.445-2.559-13.7-2.224-14.149-1.9-15.24-1.639-17.059-1.4L98.2,291.031l-.519-.02-24.238.257-17.665.632-15.129,1.5-18.786,2.378-9.262,1.96V12Z"/>
</svg>
