<svg id="work" xmlns="http://www.w3.org/2000/svg" viewBox="0 0 594 401.76">
  <title>waves</title>
  <path d="M0,0V401.762H594V0ZM581.4,340.038l-11.344.259-12.4,3.089-5.628,1.4-15.95,3.969-1.791.446-9.839,4.493-17.39,7.949-5.761,3.814-5.918,3.912-.017.015-11.616,11.053-7.057,6.72-1.27,2.608H343.153L330.3,377.8l-1.139-1.059-1.437-1.028-2.278-1.465-22.4-14.411h0l-9.442-4.961,0,0-13.083-6.117L279,348.05l-12.261-5.733-1.671-.665-1.492-.524-23.463-8.247-.029-.009-7.527-2.277-7.172-2.17-7.827-2.367h0l-19.525-4.924-1.67-.422h0l-10.243-2.066-10.31-2.078-.1-.02-19.527-2.954-1.3-.2h0l-15.2-1.556-1.867-.191-4.676-.479h0l-13.3-.737-10.221-.566-8.017-.089-8.352-.093-10.081-.113-.615.019-1.183.035h0l-16.027,1.422-13.5,1.2-.02,0-4.961.673-5.588.757-11.666,2.64-16.959,3.838-.025.007V12H581.4Z"/>
</svg>
