<svg id="work" xmlns="http://www.w3.org/2000/svg" viewBox="0 0 594 401.762">
  <title>waves</title>
  <path d="M0,0V401.762H594V0ZM581.4,12V289.988l-3.851.308-30.533,5.964-.17.076-31.527,9.6-34.8,14.185-4.742,2.377-35.824,22.229-4.247,3.105-25.449,24.445-12.385,17.486H365.853l-11.252-11.5-.229-.221-11.661-9.068-10.25-7.326L305.727,346.2l-1.522-.8L276.47,333.166l-11.2-4.46-12.983-4.463-20.84-6.436-18.819-5.122-17.666-4.136-17.176-3.363-17.3-2.722-18.018-2.159-19.6-1.642-21.637-1.072-13.836-.25-12.366.366-.065.018-29.982,2-.119.022-1.334.181-30.546,5.4-.381.106V12Z"/>
</svg>
