<svg id="work" xmlns="http://www.w3.org/2000/svg" viewBox="0 0 594 401.76">
  <title>waves</title>
  <path d="M.5,0V401.761h594V0ZM581.9,239.44l-.521.079-6.63,1-.021,0-1.73.306-12.1,2.139-1.04.21-1.7.343-9.719,1.958-2.073.477-.4.092h0l-11.027,2.905-1.673.441-4.129,1.088-9.988,2.945-7.431,2.19-.854.251-1.44.424-5.934,1.916-16.733,5.407-.963.371-.659.254-16.221,6.794-3.639,1.524-12.323,5.161-3.858,1.725-4.7,2.1-.007,0-14.75,7.914-10.808,5.8-10.4,5.581-.636.411-1.274.822h0l-.347.236L387.908,314.76l-9.676,6.6-5.846,4.857-4.74,3.938-15.508,12.883-.015.016-4.084,4.238-1.414,1.467-3.6,3.733-6.615-3.733-10.3-5.814-.17-.08L305.3,333.213l-7.391-3.455-.033-.015-6.105-2.371-.212-.08L279.5,322.75l-13.914-5.242-4.994-1.563-4.5-1.361-15.31-4.636-7.728-2.243-6.047-1.756-.262-.064-.043-.009-10.832-2.537-.2-.044-1.167-.264-3.189-.718-1.486-.335-2.852-.642-2.034-.437-5.615-1.209-.124-.025-2.254-.461-4.491-.917-2.547-.492-3.3-.64-.562-.109-.191-.035-2.421-.442-3.6-.653-2.6-.445-3.616-.617-.062-.01-2.47-.393-3.92-.624-.076-.012-2.316-.343-1.389-.207-3.154-.468-2.158-.3-5.591-.771-1.773-.227-7.269-.932-.19-.023-.944-.113-2.143-.256-7.81-.934-.033,0-.235-.026-9.549-.635-4.764-.318h-.02l-7.128-.392-13.517-.746-.146-.007-1.574-.072-1.667-.077-1.841-.084-12.13.137-15.847.177-.216,0-3.147.067-3.184.069-10.078.891-5.83.516-15.14,1.338-.014,0-6.259,1.041L13.1,292.276V11.994H581.9Z"/>
</svg>
