<svg id="work" xmlns="http://www.w3.org/2000/svg" viewBox="0 0 594 401.76">
  <title>waves</title>
  <path d="M.5,0V401.76h594V0ZM581.9,232.319l-.437.063-.085.014-1.57.253-.086.013-6.406,1.03-1.55.272-7.217,1.267-1.212.23-5.18.981-3.408.645-.656.132-7.683,1.556-2.433.6-.688.17-8.354,2.227-1.218.325-4.6,1.226-.024.007-7.41,2.106-9.968,2.834-1.127.32-3.573,1.07-9.565,2.864-.018.006-6.887,2.543-2.154.8-4.247,1.569-11.4,4.409-7.469,2.888-7.43,2.873-6.045,2.84-10.376,4.875-11.364,5.536-7.634,3.719-.009,0-3.585,2.106-11.228,6.6-15.359,9.026-1.707,1-6.434,4.562-11.715,8.3L361.9,323.614l-.942.814-5.373,4.645-15.2,13.484-2.807,2.49h0l-1.211,1.341-2.9-1.7-1.093-.641-6.437-3.115-.442-.214-20.209-9.667-9.283-3.678L279.5,320.831l-3.95-1.565-.01,0-19.261-6.278-3.779-1.232-.071-.023-8.983-2.88-.008,0-10.381-2.7-5.942-1.545-.216-.055-7.6-1.942-1.143-.292-4.236-1.083-4.086-1.021-2.377-.594-1.854-.372-5.926-1.173-4.548-.887-3.712-.715-3.191-.6-1.613-.3-1.25-.232-2.67-.485-2.581-.461-2.581-.451L175,293.506l-.146-.024-2.872-.48-3.2-.526-3.735-.6-1.653-.26-2.922-.459-5.97-.926-1.871-.285-4.6-.481-2.02-.212-.061-.006-5.772-.573-.191-.02-7.526-.746-4.159-.394-12.629-1.2h-.013l-3.824-.149-5.673-.22h-.039l-12.282-.417-.107,0-11.792-.4h-.006l-10.4.293-21.582.609-2.663.259-.766.075L27.651,288.2l-.2.021-6.039.616-1.359.138L13.1,290.249V11.993H581.9Z"/>
</svg>
