<svg id="work" xmlns="http://www.w3.org/2000/svg" viewBox="0 0 594 401.76">
  <title>waves</title>
  <path d="M.5,0V401.761h594V0ZM581.9,250.812,568.534,253l-1.287.211-9.09,1.944-3.349.716-3.462.74-3.75.8-.007,0-13.33,3.486-7.934,2.076-9.616,2.95-4.995,1.532-9.305,2.853-4.266,1.485-11.056,3.851-7.773,3.193-5.121,2.1-.007,0-8.915,4.091-4.646,2.132-20.165,9.25-.028.015-.619.339-.724.4-8.557,5.141-9.609,5.775-15.931,9.573,0,0-4.51,3.294-8.685,6.343-.026.021-10.439,8.2-5.367,4.219-3.576,3.512-5.6,5.5-3.157,3.1-10.771,10.576-.008.01-.333.428-11.37-7.522h0L329,348.756l-2.47-1.34-.587-.318L314.527,340.9l-.013-.007-8.379-3.781-.053-.023-23.233-10-3.349-1.212-4.185-1.514-9.309-3.2L253.27,316.8l-9.984-3.219-.028-.009-7.017-1.937-.123-.031-1.854-.483-1.207-.314-10.824-2.817-4.571-1.11-7.491-1.819-5.834-1.308-5.014-1.126-.076-.016-1.435-.295-4.9-1.009-3.731-.766-2.568-.477-4.02-.748-3.243-.6-.015,0-6.478-1.081-3.367-.561-6.1-.9-.081-.012-4.065-.6-.034,0-5.591-.722-5.4-.695-4.76-.53-3.288-.366-4.287-.477-3.432-.326-10.978-1.04-1.344-.107-5.914-.473-6.917-.258-3.595-.134-9.976-.182h-.053L80.4,290h0l-2.947-.006-5.061-.01-11.413.657-13.69.784-.2.012-4.757.356-4.411.332-13.96,2.082L13.1,295.824V11.994H581.9Z"/>
</svg>
