<svg id="Layer_1" data-name="Layer 1" xmlns="http://www.w3.org/2000/svg" viewBox="0 0 381.6005 381.6006"><title>tile</title><path d="M0,0V381.6006H381.6005V0ZM25.4956,356.105V323.75a32.5111,32.5111,0,0,1,32.1816,32.355Zm119.4387-14.1026c-6.0211-6.5244-11.5442-13.0356-18.9151-13.0346-12.006.0019-30.6262,9.2641-47.2287,15.2134-2.1228.7607-4.49,1.4951-7.0067,2.2041a47.3111,47.3111,0,0,0-6.6977-16.1416c2.2841-1.28,4.4813-2.4366,6.5224-3.4009,15.9467-7.5327,35.6628-14.15,44.1534-22.6382,5.213-5.2119,4.5141-13.7212,4.158-22.5918-.372-9.2564,1.3179-14.2437-2.274-17.8355s-8.5791-1.9018-17.835-2.2739c-8.8711-.3564-17.38-1.0547-22.5925,4.1582C68.73,274.1523,62.113,293.8677,54.58,309.8149c-.9643,2.0406-2.121,4.2373-3.4012,6.522a47.3212,47.3212,0,0,0-16.1413-6.6977c.7087-2.5166,1.4436-4.8838,2.2041-7.0064,5.95-16.6025,15.2118-35.2231,15.2135-47.229.0005-7.3716-6.51-12.8945-13.0352-18.915-6.6722-6.1563-9.0511-10.8023-13.9246-10.9859V99.0342A170.3325,170.3325,0,0,1,171.7782,181.52l4.5826,7.5371h16.1855l.0034,15.5406,7.6365,4.5659A172.4148,172.4148,0,0,1,283.7676,356.105H155.931C155.8568,351.1084,151.1663,348.7563,144.9343,342.0024Z"/></svg>