<svg id="Layer_1" data-name="Layer 1" xmlns="http://www.w3.org/2000/svg" viewBox="0 0 389.3904 389.3901"><title>tile</title><path d="M0,0V389.39H389.39V0ZM37.3105,336.8193a24.61,24.61,0,0,1,15.2608,15.26H37.3105Zm158.6709-92.188a199.9167,199.9167,0,0,0-35.98,101.0079q-.3018-.2858-.6036-.57c-1.4091-1.3291-3.0068-2.8349-4.6665-4.6337l-1.0361-1.126c-6.2143-6.7656-13.2578-14.4346-23.667-14.4346-10.2148.002-22.8091,5.0371-36.143,10.3682-4.2207,1.6875-8.5748,3.4277-12.71,4.9345q-.5376-1.4033-1.1524-2.7763c3.99-1.8584,8.2994-3.7061,12.4766-5.4971,13.1987-5.6592,25.6655-11.0049,32.8911-18.2275,7.36-7.3594,6.918-17.7627,6.5278-26.9405l-.0639-1.53c-.0982-2.4453-.0337-4.64.0229-6.5762.167-5.6846.34-11.5625-4.6059-16.5088-4.1157-4.1162-9.023-4.6719-13.28-4.6719-.9966,0-2.0688.03-3.229.0645-1.1968.0361-2.5.0752-3.9268.0752-.8374,0-1.7192-.0137-2.65-.0518l-1.5278-.0635c-2.1558-.0918-4.3843-.1865-6.5728-.1865-6.3579,0-14.4189.7637-20.3706,6.7149-7.2226,7.2246-12.5678,19.6914-18.227,32.8906-1.791,4.1767-3.6387,8.4863-5.4976,12.4766q-1.3725-.6153-2.7763-1.1524c1.5073-4.1348,3.2475-8.4873,4.9345-12.707,5.3316-13.335,10.3677-25.9307,10.3687-36.1465.001-10.41-7.67-17.4551-14.4375-23.67l-1.1245-1.0342c-1.7988-1.6592-3.3052-3.2568-4.6343-4.667l-.05-.0532a199.9464,199.9464,0,0,0,100.1582-35.7124q2.9708-2.0787,5.9751-4.3555c1.7964,2.5752,3.5,5.1865,5.0962,7.8115l11.481,18.878h5.8564l.0015,5.3252,19.1255,11.4355c2.8139,1.6816,5.6069,3.4814,8.3549,5.3828Q198.0561,241.6787,195.9814,244.6313ZM37.3105,126.7632A149.0045,149.0045,0,0,1,85.9766,137.79,121.8608,121.8608,0,0,1,37.3105,151.63ZM238.3447,352.08a121.8488,121.8488,0,0,1,14.188-49.3662A149.019,149.019,0,0,1,263.83,352.0806Z"/></svg>