<svg id="Layer_1" data-name="Layer 1" xmlns="http://www.w3.org/2000/svg" viewBox="0 0 389.3904 389.3901"><title>tile</title><path d="M0,0V389.39H389.39V0ZM295.5874,37.31H311.124V47.9385H295.5874Zm-93.78,116.497-2.372-3.2578c-3.563-4.8925-7.4844-9.7968-11.6563-14.5761l-3.84-4.3985,3.0669-4.9687c2.44-3.9541,4.6762-7.875,6.6455-11.6534l2.22-4.26h84.0278v82.5244l-4.2842,2.2139c-3.8691,1.999-7.8725,4.2675-11.8994,6.7412l-4.957,3.0459-4.3882-3.8194c-5.0556-4.4-10.2651-8.53-15.4844-12.2773l-3.3007-2.3691-.0044-32.9454Zm31.4478,50.6514q-6.1362,5.0333-11.875,10.55c-4.2964-3.123-8.7271-6.0527-13.2339-8.7471l-3.7827-2.2617-.0039-18.9668H184.71L182.44,181.3a178.0164,178.0164,0,0,0-93.5112-76.1533A98.3923,98.3923,0,0,0,101.44,93.375a193.1369,193.1369,0,0,1,24.63,11.8975,196.7748,196.7748,0,0,1,65.0176,60.7129l2.353,3.51h26.4546l.0029,25.6944,3.5562,2.3476Q228.4168,200.8125,233.2549,204.458ZM185.7891,95.0039l-2.1133,4.6328q-1.4824,3.249-3.1157,6.461-5.9532-5.3615-12.27-10.2979c1.8149-3.7607,3.4619-7.56,4.92-11.3535l1.914-4.9795H352.08V95.0039ZM100.7515,66.7832a80.9761,80.9761,0,0,0,9.3213-37.42l.0258-7.8936h169.8V63.7783H164.3457L158.564,78.82a137.2185,137.2185,0,0,1-6.3584,14.083l-3.9673,7.6153-7.271-4.5684c-2.6777-1.6826-4.9273-3.042-7.0786-4.2793A209.3421,209.3421,0,0,0,104.9072,77.874l-8.3213-3.206Zm-63.441,11.376A50.0854,50.0854,0,0,0,78.16,37.31H93.8643A65.5753,65.5753,0,0,1,37.3105,93.8633Zm-15.84,32.5234,7.9346.0147A164.3507,164.3507,0,0,1,106.44,129.9648l11.5137,6.1651-10.7886,7.36a138.0925,138.0925,0,0,1-77.7568,24.2559l-7.938.0185Zm108.2554,55.2832q-1.6949,1.2525-3.3716,2.4258A168.6563,168.6563,0,0,1,37.3105,198.78V183.21A155.7706,155.7706,0,0,0,117.26,155.5488,147.0464,147.0464,0,0,1,129.7261,165.9658ZM175.3,367.92H21.4707V214.6748l7.9082-.0117a184.4446,184.4446,0,0,0,105.97-33.416c3.8023-2.66,7.688-5.6162,11.5489-8.7862l6.289-5.163,4.9917,6.4257a168.2944,168.2944,0,0,1,10.856,15.7276l6.853,11.2695h12.7871l.0025,12.1787,11.417,6.8272a168.7619,168.7619,0,0,1,16.3808,11.17l6.48,4.9961-5.2046,6.3135c-3.1753,3.8525-6.1387,7.7324-8.8081,11.5312a184.4107,184.4107,0,0,0-33.63,106.2744Zm15.8945-15.84a169.9517,169.9517,0,0,1,99.7315-146.6319l4.6611-2.1044V126.5322H311.124v87.5244l-5.0117,1.9034c-56.9531,21.622-96.0771,75.6875-99.35,136.12Zm31.0161,15.84.0181-7.9385a138.0679,138.0679,0,0,1,24.627-78.3378l7.34-10.6465,6.1479,11.3759a164.3425,164.3425,0,0,1,19.55,77.6124l.0147,7.9345Zm73.18-15.84a179.5908,179.5908,0,0,0-21.9712-77.834A123.7964,123.7964,0,0,1,285.41,263.48,194.7107,194.7107,0,0,1,310.9463,352.08Zm56.69-40.7412a49.6408,49.6408,0,0,0-13.8028,4.6523q-1.5512-7.796-3.6386-15.4541a65.362,65.362,0,0,1,17.4414-4.9189Zm15.84-32.0811-7.8423.0772A79.9251,79.9251,0,0,0,323.6587,288.4l-7.8491,4.08-3.1909-8.251a209.4284,209.4284,0,0,0-14.0923-29.4082c-1.1582-1.9981-2.44-4.1045-4.0308-6.6289l-4.606-7.3067,7.6768-3.957A137.5239,137.5239,0,0,1,311.68,230.626l15.1323-5.7442V110.6924H367.92Zm0-215.4795H326.8125V21.47H367.92Z"/></svg>