<svg id="Layer_1" data-name="Layer 1" xmlns="http://www.w3.org/2000/svg" viewBox="0 0 381.6 381.6001"><title>tile</title><path d="M0,0V381.6H381.6V0ZM356.1048,51.9636H330.8374V25.4951h25.2674ZM67.0292,25.4951H98.406a73.2873,73.2873,0,0,1-72.9107,72.91V67.0285A41.8766,41.8766,0,0,0,67.0292,25.4951Zm216.7429,0H315.149V51.9636H283.7721Zm-169.6747,0H268.0837V51.9636H155.01l-7.7336,20.12a128.6064,128.6064,0,0,1-5.99,13.2661c-2.4213-1.5219-4.8632-3.0129-7.3456-4.4394a216.607,216.607,0,0,0-30.0814-14.3213A88.3409,88.3409,0,0,0,114.0974,25.4951ZM25.4953,114.7219a155.5144,155.5144,0,0,1,73.3115,18.33,130.73,130.73,0,0,1-73.3115,22.8794Zm0,56.9a146.6374,146.6374,0,0,0,87.8428-29.7268A154.6855,154.6855,0,0,1,137.8,162.7864c-3.4874,2.852-7.08,5.5962-10.8,8.1992A176.6959,176.6959,0,0,1,25.4953,203Zm40.8774-67.6489A89.5218,89.5218,0,0,0,95.1045,80.0674a201.0445,201.0445,0,0,1,31.0174,14.4438,204.1093,204.1093,0,0,1,67.65,63.1687h30.1478l.0034,29.353a203.2657,203.2657,0,0,1,18.2529,13.5894,192.7725,192.7725,0,0,0-23.9829,20.96,169.6926,169.6926,0,0,0-18.0069-12.4195l-7.6365-4.5659-.0034-15.54H176.36l-4.5827-7.5381A170.2853,170.2853,0,0,0,66.3727,103.9729ZM189.85,126.87c2.446-3.9626,4.7692-8.0076,6.9294-12.1523h71.3044V184.5c-4.2335,2.1875-8.364,4.544-12.41,7.0293q-7.7307-6.7279-16.0649-12.7368l-.0051-36.8H201.9424Q196.2366,134.1568,189.85,126.87Zm93.9222,67.4646V114.7173H315.149V215.6267l-10.12,3.8423a147.2357,147.2357,0,0,0-94.4635,136.6357h-31.38a177.86,177.86,0,0,1,104.5866-161.77Zm-34.2909,87.9092a155.5024,155.5024,0,0,1,18.5979,73.8613H226.2537A130.7435,130.7435,0,0,1,249.4812,282.2434Zm10.2776-13.0386a131.1879,131.1879,0,0,1,24.0514-21.11c1.4042,2.2177,2.7819,4.4531,4.1,6.727a202.72,202.72,0,0,1,27.2337,101.2827h-31.377A171.511,171.511,0,0,0,259.7588,269.2048Zm61.5479,23.3023a72.753,72.753,0,0,1,34.7981-9.2974v31.38a41.6891,41.6891,0,0,0-27.4454,11.0556A218.9263,218.9263,0,0,0,321.3067,292.5071ZM316.11,277.4778a216.7345,216.7345,0,0,0-14.6275-30.524c-1.3474-2.3232-2.7522-4.6108-4.183-6.88a129.0226,129.0226,0,0,1,13.2971-5.938l20.24-7.6841V114.7173h25.2674V267.52A88.3625,88.3625,0,0,0,316.11,277.4778ZM186.986,99.029a177.7008,177.7008,0,0,1-8.289,15.9732,220.0148,220.0148,0,0,0-24.3682-20.7879,143.9868,143.9868,0,0,0,7.5925-16.5034l3.8659-10.0586H356.1048V99.029ZM51.3407,25.4951A26.17,26.17,0,0,1,25.4953,51.34V25.4951ZM25.4953,218.6877a192.3015,192.3015,0,0,0,110.4983-34.8462c4.1488-2.9028,8.1523-5.9668,12.0348-9.1548a159.827,159.827,0,0,1,10.3437,14.9849l9.1668,15.0737h9.3219l.0017,8.7515,15.2713,9.1314a160.1356,160.1356,0,0,1,15.61,10.646c-3.1946,3.8754-6.2663,7.8725-9.177,12.0151a192.271,192.271,0,0,0-35.07,110.8154H25.4953Zm305.35,137.417a26.1546,26.1546,0,0,1,25.26-25.8081v25.8081Z"/></svg>