<svg id="Layer_1" data-name="Layer 1" xmlns="http://www.w3.org/2000/svg" viewBox="0 0 381.6 381.6001"><title>tile</title><path d="M0,0V381.6H381.6V0ZM322.9173,59.8834V17.5748h41.1074V59.8834ZM137.0721,92.0552c-2.6777-1.6826-4.9272-3.042-7.0786-4.2793A209.353,209.353,0,0,0,101.012,73.9791L92.6908,70.773l4.1655-7.8848a80.9746,80.9746,0,0,0,9.3213-37.42l.0258-7.8935h169.8V59.8834H160.4505l-5.7817,15.042a137.2164,137.2164,0,0,1-6.3584,14.083l-3.9673,7.6152ZM17.5755,106.7877l7.9346.0146A164.3493,164.3493,0,0,1,102.5452,126.07l11.5137,6.165-10.7886,7.36a138.0931,138.0931,0,0,1-77.7568,24.2558l-7.938.0186Zm232.8994,90.7158c-5.0556-4.4-10.2651-8.53-15.4843-12.2774L231.69,182.857l-.0044-32.9453H197.9119l-2.372-3.2578c-3.563-4.8926-7.4844-9.7969-11.6563-14.5762l-3.84-4.3984,3.0669-4.9688c2.44-3.9541,4.6763-7.875,6.6455-11.6533l2.22-4.26h84.0278v82.5244l-4.2841,2.2139c-3.8692,1.999-7.8726,4.2676-11.8995,6.7412l-4.957,3.0459ZM218.3158,364.025l.018-7.9385a138.0683,138.0683,0,0,1,24.627-78.3379l7.34-10.6465,6.148,11.376a164.343,164.343,0,0,1,19.55,77.6123l.0146,7.9346Zm90.4077-83.69a209.4338,209.4338,0,0,0-14.0923-29.4082c-1.1582-1.998-2.4395-4.1045-4.0308-6.6289l-4.6059-7.3066,7.6767-3.957a137.556,137.556,0,0,1,14.1138-6.3028l15.1323-5.7441V106.7974h41.1074V275.3629l-7.8423.0771a79.9276,79.9276,0,0,0-36.4189,9.0654l-7.8491,4.08Zm-291.148,83.69V210.78l7.9082-.0117a184.4446,184.4446,0,0,0,105.97-33.416c3.8023-2.66,7.688-5.6162,11.5489-8.7861l6.289-5.1631,4.9917,6.4258a168.2931,168.2931,0,0,1,10.856,15.7275l6.853,11.27h12.7871l.0025,12.1788,11.417,6.8271a168.7619,168.7619,0,0,1,16.3808,11.17l6.4805,4.9961-5.2046,6.3135c-3.1753,3.8525-6.1387,7.7324-8.8081,11.5312a184.4117,184.4117,0,0,0-33.63,106.2745l-.0117,7.9082Z"/></svg>