<svg id="Layer_1" data-name="Layer 1" xmlns="http://www.w3.org/2000/svg" viewBox="0 0 389.3879 389.3877"><title>tile</title><path d="M0,0V389.3877H389.3879V0ZM125.56,37.3076H264.0579V47.9365H153.4626l-9.685,25.1983q-.9266,2.41-1.9741,4.8144l-.0181-.0107a224.6691,224.6691,0,0,0-23.3149-11.6446A97.13,97.13,0,0,0,125.56,37.3076ZM264.0579,126.53v57.1123q-1.83,1.0079-3.6807,2.0771-4.4312-3.6694-8.9541-7.05l-.0059-40.7051H209.8181q-3.0483-4.0239-6.3594-8.01,1-1.72,1.9449-3.4248ZM29.3894,250.4375a14.04,14.04,0,0,1,0,28.08Zm0,38.0933a6.48,6.48,0,1,1,0,12.96Zm0,71.4672V327.6436A32.5105,32.5105,0,0,1,61.571,359.998Zm58.5073,0a6.48,6.48,0,0,1,12.96,0Zm22.9732,0a14.04,14.04,0,1,1,28.08,0Zm48.9548,0c-.0742-4.996-4.7646-7.3486-10.9967-14.1025-6.0211-6.5244-11.5441-13.0351-18.9152-13.0342-12.0058.002-30.6261,9.2637-47.2285,15.2129-2.1228.7608-4.49,1.4951-7.0068,2.2041A47.3111,47.3111,0,0,0,68.98,334.1367c2.2842-1.2793,4.4815-2.4365,6.5225-3.4,15.9468-7.5332,35.6628-14.15,44.1534-22.6386,5.2131-5.212,4.5141-13.7207,4.158-22.5918-.3719-9.2559,1.318-14.2432-2.2739-17.835s-8.5791-1.9023-17.8351-2.2744c-8.8711-.3565-17.38-1.0547-22.5924,4.1582-8.4885,8.4912-15.1055,28.206-22.6381,44.1533-.9643,2.041-2.1211,4.2373-3.4012,6.5225a47.32,47.32,0,0,0-16.1413-6.6983c.7085-2.5166,1.4436-4.8838,2.2041-7.0058,5.95-16.6026,15.2117-35.2237,15.2134-47.23.0005-7.3711-6.51-12.8946-13.0351-18.9151-6.6722-6.1562-9.0511-10.8017-13.9246-10.9853V102.9277a170.33,170.33,0,0,1,146.2825,82.4854l4.5827,7.5371H196.44l.0035,15.54,7.6366,4.5664A172.4137,172.4137,0,0,1,287.6614,359.998ZM68.9908,313.9692a6.48,6.48,0,1,1,6.48,6.48A6.48,6.48,0,0,1,68.9908,313.9692Zm18.1423-31.5175a14.04,14.04,0,1,1,0,19.8549A14.04,14.04,0,0,1,87.1331,282.4517ZM352.0784,263.88a95.1131,95.1131,0,0,0-27.8814,6.8144,224.7048,224.7048,0,0,0-11.6811-23.3222q2.3869-1.0284,4.7866-1.9395l25.3486-9.623V126.53h9.4278Zm0-215.9434h-9.4278V37.3076h9.4278Z"/></svg>