<svg id="work" xmlns="http://www.w3.org/2000/svg" viewBox="0 0 594 401.762">
  <title>waves</title>
  <path d="M0,0V401.762H594V0ZM581.4,12V225.158l-1.25.188-2.989.465-3.477.554-4.256.695-5.55.927-8.688,1.48-12.02,2.9-24.413,6.023-3.391.85-37.182,12.169L445.205,264.89l-2.748,1.137L409.262,282.78l-30.646,18.685-27.86,20.519-.107.14L331.1,339.682l-24.233-11.725-29.447-11.785-31.431-10.33-5.8-1.535-27.569-7.252-13.53-2.758-5.425-1.1-3.418-.685-3.951-.778-3.169-.607-2.272-.417-2.133-.377-2.281-.385-2.85-.461-4.31-.671-3.444-.526-5.474-.825-13.65-2.033-28.392-2.613-5.972-.542-33.069-1.043-31.518,1h-.131l-29.857,3.044-5.177.95V12Z"/>
</svg>
