<svg id="work" xmlns="http://www.w3.org/2000/svg" viewBox="0 0 594 401.762">
  <title>waves</title>
  <path d="M0,0V401.762H594V0ZM581.4,12V247.084l-15.821,2.59-19.822,4.238-21.416,5.6-23.987,7.357-15.544,5.411-13.157,5.4-.064.035-33.776,15.5-1.455.8-34.6,20.79-.116.116-12.969,9.472-16.09,12.644-21.57,21.183L342,352.259l-26.918-14.6-8.467-3.82-23.441-10.088-7.689-2.782-22.111-7.592-10.035-3.235-7.211-1.993-14.045-3.653-12.124-2.945-10.848-2.434L188.839,297l-9.829-1.827-9.994-1.667-10.342-1.522-11.056-1.425-12.393-1.379-14.463-1.37-7.258-.58-10.733-.4L79.4,286.4l-8.115-.017-25.476,1.463-9.3.7L12.6,292.111V12Z"/>
</svg>
