<svg id="work" xmlns="http://www.w3.org/2000/svg" viewBox="0 0 594 401.76">
  <title>waves</title>
  <path d="M0,0V401.762H594V0ZM581.4,293.6l-3.01.241-.349.027-20.384,3.982-6.448,1.259-3.092.6h0l-8.536,2.6L526.8,306.205l-10.278,3.132-13.065,5.325-21.485,8.754-.021.01-1.782.9-2.638,1.325h0l-12.762,7.918-4.448,2.759-18.359,11.394-1.422,1.039-.773.565-1.747,1.278h0l-14.773,14.191-10.255,9.849h0l-5.037,7.109-5.677,8.016H360.815l-2.851-2.915-5.937-6.067-.01-.01-11.436-8.893-.023-.017-10.048-7.182h0l-5.066-2.927-21.517-12.433h0l-1.072-.564-.21-.11h0L279,338.218l-3.983-1.758-.012,0-10.94-4.353-.053-.021-12.9-4.433-.141-.044-7.083-2.187-11.333-3.5-2.174-.671-13.564-3.69-5.139-1.4L195.639,312.4l-1.5-.351-8.024-1.569-8.541-1.671-.486-.1h0l-15.925-2.5-1.241-.195L145.511,304.3l-3.475-.417h-.01l-12.039-1.007-6.654-.557-.611-.051h-.008l-8.644-.43-13.02-.646-3.8-.069-4.025-.072-5.815-.105-7.138.212-4.7.139h0L63.46,302.1l-3.249.216L45.45,303.3l-.016,0-.661.089-.76.1L27.9,306.337l-14.125,2.5-1.179.328V12H581.4Z"/>
</svg>
