<svg id="work" xmlns="http://www.w3.org/2000/svg" viewBox="0 0 594 401.762">
  <title>waves</title>
  <path d="M0,0V401.762H594V0ZM581.4,12V235.727l-8.189,1.237-14.023,2.48-12.556,2.531-2.479.569-16.938,4.461-19.9,5.866-22.764,7.353-1.714.662L450.48,274.437l-8.7,3.89L405.6,297.742,403.49,299.1l-28.427,19.378-26.393,21.93-7.3,7.574-14.611-8.245L298.283,326.43,292.028,324l-26.269-9.9-5.123-1.6-19.847-6.008-13.853-4.023-11.276-2.643-8.92-2.009-7.681-1.653-6.91-1.412-6.447-1.247-6.252-1.138-6.219-1.062-6.492-1.034-7.008-1.041-7.785-1.074L142.871,287l-11.457-1.368-14.457-.961-20.7-1.141-5.311-.243-28.12.315-6.663.142-31.386,2.776-.135.028-12.044,2V12Z"/>
</svg>
