<svg id="work" xmlns="http://www.w3.org/2000/svg" viewBox="0 0 594 401.76">
  <title>waves</title>
  <path d="M.5,0V401.761h594V0ZM581.9,268.315l-11.841,2.034-11.412,1.959-.02,0-.47.112-10.34,2.449-14.641,3.47-6.946,2.078-14.516,4.34-6.179,1.847-1.045.374-2.7.964-17.178,7.215-10.56,4.434-.035.017-5.54,2.7-3.209,1.565-1.162.566-14.458,7.047-.016.01-6.206,3.65-6.793,3.994-12.6,8.371-5.209,3.461-5.407,3.593-8.366,6.931-8.76,7.255L388.763,355l-2.163,1.972-1.039.948L372.385,373.69l-.629.754-5.6,6.7-15.443-12.823-.254-.211-.469-.31-24.348-15.183-.013-.008-7.494-3.854-9.212-4.738-.032-.015-13.466-6.467-.016-.008L279.5,331.084l-.284-.115-.051-.019-22.507-8.464-.054-.02-.425-.137-.126-.038-.089-.026-18.832-5.627-4.075-1.115-2.8-.764-9.556-2.614-.037-.009-9.863-2.433-4.894-1.208h0l-11.173-2.445-2.676-.586h0l-5.442-1.036-6.048-1.151-1.954-.373-.013,0-3.625-.588-7.55-1.226-2.321-.376-10.4-1.4-3.652-.491-9.115-.981-1.762-.19-4.274-.46-7.2-.593-9.771-.805-4.379-.256-15.468-.909-.117,0-.059,0-.27-.009-4.9.051-9.45.1-9.8.1h-.017l-6.794.244-10.65.381-6.9.683-2.83.28-5.186.514-9.786,1.239-8.852,1.121-9.36,1.98-1,.213V11.994H581.9Z"/>
</svg>
