<svg id="work" xmlns="http://www.w3.org/2000/svg" viewBox="0 0 594 401.762">
  <title>waves</title>
  <path d="M0,0V401.762H594V0ZM581.4,12V228.61l-1.456.213-8.25,1.326-8.816,1.548-9.839,1.864-8.418,1.7-3.26.806-14.253,3.8-18.554,5.275-13.264,3.972-13.445,4.966L455.425,264.3l-16.582,7.791-19.132,9.322-32.133,18.881-28.9,20.488-6.481,5.6-17.441,15.474-1.679-.986-6.565-3.176-20.78-9.942-29.994-11.884-23.108-7.531-9-2.887-.1-.039-16.53-4.3-13.2-3.375L207.25,296.1l-7.882-1.565-4.556-.888-3.723-.717-3.206-.607-5.555-1.019-2.594-.463-2.6-.454-2.542-.433-3.026-.507-3.22-.527-3.742-.6-4.584-.722-5.979-.927-1.955-.3-6.683-.7-13.611-1.352-16.971-1.609h-.1l-9.484-.368-24.248-.823-32.269.906-22.43,2.184-7.753.79L12.6,286.5V12Z"/>
</svg>
