<svg id="Layer_2" data-name="Layer 2" xmlns="http://www.w3.org/2000/svg" viewBox="0 0 648 648"><path d="M0,648H648V0H0ZM54,54H348.64c3.39,1.08,5.62,2.44,4,3.22C345.91,60.6,331.45,77,332.36,98.47c4.3-15.85,16.21-36.22,34.92-35.53,8.49.32,25.42,7.73,23.38,8.82-11.91,6.38-22.34,15.29-28.2,34.7,10.44-11.34,17.21-27.44,48.08-30,5.58-.46,28.86,9.05,24,11.21-10.23,4.51-31.2,22-30.94,40.81,2.34-12.94,20.26-36,49-36.13,4.81,0,29.18,10.31,20.66,16.06-11.38,7.66-17.9,27.47-16.68,39.37,4.51-19.46,17.28-32.75,29.27-30.34,2.61-.33,17,9.52,17.46,13,1.13,8.9-1.56,24.49-8,40.68,9.56-10.72,12.14-21.07,13.95-28.45,1-4,12.43,2.49,14.13,4.91,1.53,2.19,8,16.15,8.77,19.17-.33-7-1-14.55-2-22.75h0l-.12-1c0-.14,0-.26-.05-.39v0c-.78-6.18-1.75-12.69-2.94-19.58-5.74-33.13-28.85-55.94-54.77-69H594V594H54Z"/></svg>