<svg id="Layer_2" data-name="Layer 2" xmlns="http://www.w3.org/2000/svg" viewBox="0 0 648 648"><path d="M0,648H648V0H0ZM495.43,226.57c3.29,4.65,7.63,7.32,11.9,7.32h0c3.75,0,7.43-2,10.62-5.8,6.14-7.3,19.06-32.09,6.5-104.59-5.35-30.88-25.64-49.89-41.72-60.41A123.76,123.76,0,0,0,466.09,54H594V594H384.52c.28-.81.56-1.62.87-2.43a122.09,122.09,0,0,1,6.44-14.28c2.56-4.64,5.21-9.41,7.61-14.33a115.54,115.54,0,0,0,6.39-15.39,68.1,68.1,0,0,0,3.33-16.74,61.91,61.91,0,0,0-1.33-17.26,81.58,81.58,0,0,0-5.6-16.49,125.44,125.44,0,0,0-8.39-15.3c-3.12-4.91-6.52-9.66-10.06-14.28-.9-1.15-1.8-2.32-2.71-3.44l-2.7-3.39c-.91-1.11-1.78-2.25-2.66-3.39s-1.74-2.29-2.6-3.44c-3.42-4.62-6.69-9.35-9.73-14.22A176.45,176.45,0,0,1,347.92,409a136.17,136.17,0,0,1-8.21-32.81,121.37,121.37,0,0,1,.66-33.16,130.06,130.06,0,0,1,9.09-31.1,158.91,158.91,0,0,1,15.32-27.47A197.37,197.37,0,0,1,383.86,261a226.33,226.33,0,0,1,21-19.51q5.37-4.4,10.81-8.31c3.63-2.59,7.26-5,10.89-7.18.9-.54,1.81-1,2.69-1.52l.66-.34c.23-.12.36-.19.63-.31l.73-.34.77-.36c2-1,3.94-2,5.79-3.15,3.7-2.21,7.14-4.56,10.4-7a177.15,177.15,0,0,0,17.52-14.82q3.31-3.18,6.28-6.35c5.12-1.47,10.82-5.19,16.74-11l6.72-5.44-2.28,8.27C486.3,203.23,489.83,218.65,495.43,226.57Zm-74.74-62c7.81,0,18.28-3.78,31.12-11.24l7.79-4.52-4,8.06c-4.64,9.31-4.54,21.2.24,28.92a14.42,14.42,0,0,0,6.88,6c-.55.55-1.1,1.1-1.66,1.64a169.49,169.49,0,0,1-16.74,14.4c-3.11,2.33-6.37,4.61-9.81,6.7-1.72,1-3.49,2-5.28,2.92-.22.12-.45.22-.68.33l-.72.34c-.22.1-.57.28-.81.41l-.77.4c-1,.55-2,1.11-2.95,1.69-3.84,2.33-7.57,4.88-11.29,7.59s-7.39,5.59-11.05,8.63A231.4,231.4,0,0,0,379.57,257a202.56,202.56,0,0,0-19.44,24.27,164.23,164.23,0,0,0-15.61,28.56,135.78,135.78,0,0,0-9.2,32.42,126.6,126.6,0,0,0-.4,34.52,140.39,140.39,0,0,0,8.77,33.88,180.19,180.19,0,0,0,16.09,31.24q4.73,7.41,10,14.41c.88,1.16,1.76,2.33,2.67,3.47s1.8,2.3,2.72,3.43l2.74,3.37c.92,1.13,1.79,2.24,2.68,3.36,3.53,4.52,6.9,9.14,10,13.91a121.89,121.89,0,0,1,8.27,14.77,79,79,0,0,1,5.48,15.71,58.23,58.23,0,0,1,1.39,16.29,64.93,64.93,0,0,1-3,16,113.89,113.89,0,0,1-6.09,15c-2.34,4.88-4.89,9.56-7.45,14.3a124.52,124.52,0,0,0-6.48,14.69c-.42,1.14-.82,2.28-1.2,3.43H348.58c1.68-4.16,3.29-8.52,3.44-14.07.19-8.4-2.58-20.89-11.79-23.75-3.41-3.14-7.7-10.79-5.67-15.72,1.27-10.22,3.39-19.2-5.16-27.56-1.82-1.79-3.48-1.83-5.18-3.17-4.42-1.42-4.66-4.45-4.47-7.68,3.32-5.91,3.36-14.85-3.95-19.6-4.29-2.79-5.28.16-6.58-5.92-2.2-10.1-.93-20.74-1-31-.14-15-6-28.38-10.3-42.42-7.29-23.71-13.18-46.91-11.78-71.91a170.64,170.64,0,0,1,12-53.42c.78-1.77,3.8-11.46,8.53-15.1s20.71-24.2,15.32-37.24c-.93-4.2,6.81-11.25,9.91-12.87,6.39-4.49,12.48-6.81,17.9-13.49,3.77-4.69,6-9.61,9.36-14.5,5.78-8.35,16.85-17.26,26.34-17.86,9.15-.31,18-1.34,24.48-6.15C412.54,163.22,416.07,164.52,420.69,164.52Zm-98.91,60.57s.1.18.15.34Zm.15.38a.76.76,0,0,1,.05.19C322,225.6,322,225.53,321.93,225.47ZM54,54H345c-20.8,5.74-38.24,17.58-41,35.93-1.33,8.9,0,16.39,3.54,20.54a8.72,8.72,0,0,0,6.84,3.24c4.69,0,10-3.31,14.9-9.34L333.68,99l.4,6.93c0,.15,1.09,15.15,8.74,15.15,2.72,0,7.64-1.73,15.66-10l5.7-5.87-1.09,8.11c0,.2-2.54,19.67,4.67,27.92a10.09,10.09,0,0,0,8,3.47c6.21,0,14.59-3.83,24.9-11.37l1.24-.91c-1.09,3.11-1.06,11.87-4.45,13.8A20.36,20.36,0,0,1,384.19,148c-60.15-12.14-21.63,30-44.15,35.06-21.62,4.83-2.05,20.13-14.17,18.89-22.84-2.34-24.57,24.5-17.68,31.18,8.27,8,3.85,17.1-17.5,26.3-33.9,14.61-38.84,75.05-15.63,100.92,14.29,15.92-15.61,7.84,18.15,61.69,5.43,8.67,10.5,10,5.48,29.12-5.46,20.73-2.09,31.74,12.36,38.13,3.44,1.52.34,10.95.3,13.95-.12,9.6,7.65,10.23,12.93,15,9.89,9.42.74,24.43,6.62,36,1.52,3,3.73,6.38,7,7.58.26.19,1.41.28,1.5.52,5.55,3.1,7.15,11.83,7.17,17.52S343.72,589.21,342,594H54Z"/></svg>