<svg id="Layer_2" data-name="Layer 2" xmlns="http://www.w3.org/2000/svg" viewBox="0 0 648 648"><path d="M0,648H648V0H0Zm330.65-54c.13-.88.28-1.77.46-2.65a39.63,39.63,0,0,1,5.36-13.19c.16-.25.3-.49.5-.77l.52-.77,1.13-1.63c.75-1.11,1.5-2.22,2.22-3.36a81.37,81.37,0,0,0,4.08-7.15,72.42,72.42,0,0,0,5.73-15.92l.48-2.12.42-2.05.1-.51.06-.32.06-.35c.06-.44.1-.84.13-1.24.06-.79.07-1.54.08-2.3a57.47,57.47,0,0,0-.75-8.9,73.32,73.32,0,0,0-4.37-15.64,9.43,9.43,0,0,1,1.77-2.27,14.8,14.8,0,0,1,11.58-3.63c7.35.54,15.91,0,19.8-7.65,2.05-2.92,3.33-6.06,5.06-8.94.57,4.56,1,9.1,1.25,13.6.25,4.07.29,8.11.25,12.11s-.28,7.95-.71,11.83a112.61,112.61,0,0,1-4.51,22.39,98.52,98.52,0,0,1-3.91,10.24,88.84,88.84,0,0,1-5,9.37,73,73,0,0,1-12.84,15.44,66.59,66.59,0,0,1-8.2,6.38Zm63.51-142.49c-.5,5-3.23,8.68-5.81,12.68-2.76,4.5.48,8.93-1.26,12.85,0,.12-.09.23-.13.35-.18-.95-.36-1.89-.53-2.85-.38-2.11-.86-4.22-1.29-6.35s-1-4.19-1.44-6.29-1-4.2-1.46-6.3c-1.91-8.37-3.48-16.88-4.63-25.48a237,237,0,0,1-2.1-26c-.18-6.89,0-13.78.46-20.62,17.71,3.2,17,10.71,22.18,19.9,4.06,7.24,5.6,12-6.75,17.19C382.49,424.34,394.89,440.79,394.16,451.51ZM594,54V594H356.24a67.12,67.12,0,0,0,5.27-4.25,75.47,75.47,0,0,0,13.55-15.91,90.85,90.85,0,0,0,5.32-9.67,103.07,103.07,0,0,0,4.18-10.56,116.75,116.75,0,0,0,4.92-23c.49-4,.71-8.05.88-12.14s.09-8.23-.12-12.39c-.26-5.93-.81-11.92-1.6-17.93.4-.37.83-.74,1.3-1.1a18.72,18.72,0,0,0,4.85-5.59c2.8-4.61-.12-9.39,3.68-13.24,7.35-7.48,12-17,9.64-27.63-.57-2.18-3.14-10-5.31-12,4.84-.53,11.34-4.55,12.08-11.26.94-8.64-1.07-18.62-5.86-25.56-5.84-8.46-14.31-13.41-21.27-20.28a46.67,46.67,0,0,1-8.68-11.4q.71-3.63,1.57-7.22a170.45,170.45,0,0,1,18.41-46.19A175.15,175.15,0,0,1,427.59,270a189.31,189.31,0,0,1,32.73-25.81c1.37-.84,2.74-1.68,4.09-2.47s2.75-1.55,4.2-2.44c2.8-1.71,5.4-3.47,7.92-5.23,5-3.54,9.58-7.12,13.75-10.67.78-.66,1.53-1.32,2.28-2a27.87,27.87,0,0,0,2.87,5.22c3.29,4.65,7.63,7.32,11.9,7.32h0c3.75,0,7.43-2,10.62-5.8,6.14-7.3,19.06-32.09,6.5-104.59-5.35-30.88-25.64-49.89-41.72-60.41A123.27,123.27,0,0,0,466.08,54ZM455.83,185.74c1.94,3.12,5.5,6.85,11.47,6.85,6.22,0,13.64-4.05,21.46-11.7l6.72-5.44-2.28,8.27c-4,11.3-4.49,21.23-3.11,29.12q-2.35,2.25-5,4.53c-3.93,3.44-8.3,6.94-13.06,10.39-2.38,1.72-4.87,3.44-7.42,5-1.24.78-2.62,1.54-4,2.42s-2.83,1.73-4.25,2.64a196.25,196.25,0,0,0-33.66,27.19,181.51,181.51,0,0,0-29.17,38.42,176.75,176.75,0,0,0-18.45,47.86c-4.2-11.14-5.9-23.64-6.52-34.46a160.32,160.32,0,0,1,9.14-62.73c10.84-30.33,31.4-56.71,61.87-69,4.64-1.88,9.13-3.89,13.52-6A24,24,0,0,0,455.83,185.74Zm-80-41c6.21,0,14.59-3.83,24.9-11.37l5.36-3.92L405,136c0,.16-2.56,15.79,4.27,23.86,2.68,3.17,6.43,4.71,11.47,4.71,5.58,0,12.52-1.94,20.72-5.76a13.77,13.77,0,0,0,0,7.35c5.51,19.13-52.15-16.25-57.12,40.18-3.51,39.84-68.12,5.48-32.95,91.4,18,44-36.88,73.07,19.24,84.83a217.15,217.15,0,0,0-.25,21.8,243.32,243.32,0,0,0,2.45,26.47c1.27,8.74,3,17.37,5,25.84.52,2.11,1,4.2,1.55,6.3s1.05,4.18,1.51,6.25.93,4.12,1.33,6.2.85,4.14,1.19,6.21l.06.38c-4.47,4.81-6.79,10.35-9,16.73-1.14,6.31-9.48,5.9-13.93,6a17.79,17.79,0,0,0-14.89,7.6,77.42,77.42,0,0,0-8.74-14.78,90,90,0,0,0-28.72-24.44,137,137,0,0,0-36.34-13.38c-1.59-.37-3.22-.68-4.83-1l-4.78-.89c-3.1-.53-6.18-1.19-9.26-1.91s-6.12-1.57-9.15-2.5-6-2-9-3.1a122.81,122.81,0,0,1-33.1-18.87,112.53,112.53,0,0,1-25.27-28.7,115.94,115.94,0,0,1-14.33-35.51,130,130,0,0,1-2.68-38.06,143.79,143.79,0,0,1,2.69-18.77,152,152,0,0,1,5.05-18.11,162.3,162.3,0,0,1,16.07-33.21A177.33,177.33,0,0,1,205.43,231c4-4.23,8.29-8.19,12.61-12s8.77-7.27,13.28-10.58,9.1-6.37,13.71-9.23c1.15-.73,2.32-1.41,3.47-2.11l3.48-2,3.47-1.94L259,191.2c4.85-2.58,9.45-5.34,13.91-8.08s8.73-5.52,12.91-8.21L292,171l6.1-3.81c4-2.47,8-4.85,11.87-7.18,7.78-4.66,15.22-9.06,22.12-13.45s13.3-8.67,19-13q4.32-3.23,8.13-6.48,1.78-1.53,3.46-3.06c.24,6,1.4,13,5.05,17.22A10.09,10.09,0,0,0,375.79,144.7ZM54,54H345c-20.8,5.74-38.24,17.58-41,35.93-1.33,8.9,0,16.39,3.54,20.54a8.72,8.72,0,0,0,6.84,3.24c4.69,0,10-3.31,14.9-9.34L333.68,99l.4,6.93c0,.16,1.09,15.15,8.74,15.15,2.72,0,7.64-1.73,15.66-10l5.7-5.88-.12.94a66.43,66.43,0,0,1-5.62,6.84,119.37,119.37,0,0,1-13.65,12.34c-5.34,4.23-11.41,8.53-18.08,12.94S312.8,147.2,305.09,152c-3.86,2.39-7.83,4.85-11.88,7.43l-6.08,3.95-6.2,4.09c-4.15,2.75-8.36,5.53-12.68,8.3s-8.74,5.44-13.33,8l-3.54,2-3.63,2.06-3.59,2.14c-1.19.73-2.4,1.45-3.59,2.21-4.77,3-9.51,6.23-14.18,9.68s-9.25,7.17-13.74,11.1S203.79,221,199.6,225.4a187.46,187.46,0,0,0-23,29.48,170.37,170.37,0,0,0-16.79,34.85,160.1,160.1,0,0,0-5.28,19.06,150.5,150.5,0,0,0-2.8,19.8,137.72,137.72,0,0,0,2.88,40.32,123.8,123.8,0,0,0,15.29,37.84A119.08,119.08,0,0,0,197,437.33a130.25,130.25,0,0,0,35.19,19.89q4.69,1.8,9.48,3.24c3.19,1,6.4,1.84,9.62,2.58s6.46,1.42,9.7,2l4.72.84c1.52.32,3,.58,4.57.93A133.65,133.65,0,0,1,305,479.09a84.19,84.19,0,0,1,27,22.26,69.4,69.4,0,0,1,13.67,30.36,51.17,51.17,0,0,1,.81,8c0,.65,0,1.3,0,1.9,0,.31,0,.6-.07.86l0,.16a1.19,1.19,0,0,1,0,.2l-.1.51c-.13.69-.25,1.39-.39,2l-.42,2a67.32,67.32,0,0,1-5.13,14.83c-1.13,2.32-2.4,4.56-3.74,6.75-.68,1.09-1.38,2.17-2.08,3.24l-1.08,1.59-.56.84-.55.87a44.66,44.66,0,0,0-5.87,14.93c-.23,1.21-.42,2.42-.56,3.62H54Z"/></svg>