<svg id="Layer_2" data-name="Layer 2" xmlns="http://www.w3.org/2000/svg" viewBox="0 0 648 648"><path d="M0,648H648V0H0ZM399.43,134.24l1.26-.91,5.36-3.92L405,136c0,.16-2.56,15.79,4.27,23.86,2.68,3.17,6.43,4.71,11.47,4.71,7.81,0,18.28-3.78,31.12-11.24l7.79-4.52-4,8.06c-4.64,9.3-4.54,21.2.24,28.92,1.94,3.12,5.5,6.85,11.47,6.85,6.22,0,13.64-4.05,21.46-11.7l6.72-5.44-2.28,8.27c-6.9,19.51-3.37,34.93,2.23,42.85,3.29,4.65,7.63,7.32,11.9,7.32h0c3.75,0,7.43-2,10.62-5.8,6.14-7.3,19.06-32.09,6.5-104.59-5.35-30.88-25.64-49.89-41.72-60.41A123.27,123.27,0,0,0,466.08,54H594V594H465.62a183.43,183.43,0,0,0-3.83-21A221.36,221.36,0,0,0,453,545.08a279.73,279.73,0,0,0-12.59-27.81,375.18,375.18,0,0,0-34.31-53.67q-4.92-6.5-10.07-12.85c-1.71-2.13-3.49-4.22-5.23-6.34s-3.53-4.15-5.29-6.23l-2.67-3.1c-.87-1-1.76-2-2.62-3.07l-2.59-3.1-2.54-3.14q-5.07-6.3-9.82-12.84a273.32,273.32,0,0,1-17.39-27.07,216.09,216.09,0,0,1-13.51-28.73,174.66,174.66,0,0,1-8.52-29.87,149.08,149.08,0,0,1-2.63-30,143.94,143.94,0,0,1,3.37-28.91,149.46,149.46,0,0,1,8.56-26.57,173.6,173.6,0,0,1,12.3-23.53c2.27-3.64,4.64-7.19,7-10.51.6-.85,1.25-1.71,1.87-2.56s1.23-1.68,1.85-2.51q1.89-2.53,3.71-5.06c4.86-6.71,9.31-13.28,13.39-19.63s7.8-12.49,11.15-18.35C391.71,150.4,396,141.87,399.43,134.24Zm-31.67,7a10.09,10.09,0,0,0,8,3.47,23.85,23.85,0,0,0,8.33-1.78q-2.91,5.6-6.39,11.67c-6.53,11.38-14.6,23.88-24,37-1.19,1.64-2.39,3.29-3.62,5l-1.89,2.56c-.62.86-1.24,1.69-1.88,2.59-2.57,3.61-5,7.29-7.4,11.15a182.13,182.13,0,0,0-13,24.92,159.75,159.75,0,0,0-9.06,28.36,151.3,151.3,0,0,0-3.51,30.92,159.18,159.18,0,0,0,3,32,183.66,183.66,0,0,0,9.19,31.45c8,20.54,19.43,39.84,32.59,57.63q4.95,6.68,10.21,13.08l2.64,3.19,2.69,3.15c.88,1.05,1.8,2.08,2.71,3.11l2.69,3.07c1.78,2,3.61,4.08,5.34,6.12s3.49,4.06,5.2,6.14q5.14,6.19,10.06,12.5c6.54,8.41,12.74,17,18.49,25.68s11.13,17.5,15.91,26.42a274.19,274.19,0,0,1,12.73,26.91,223.08,223.08,0,0,1,9,27,179.73,179.73,0,0,1,4,19.5H430.66c5.27-8.43,5.29-22.67-.72-28.56-4.39-4.33-11.37-4-15.84-8.4-5.19-4.92-4.4-15-4.62-21.5-.6-18-7.7-30.81-24.84-38.21-8.24-3.57-17.85-4.62-25.2-10-8.23-6.08-6.94-16.49-9.84-25.23-2.84-8.57-8.55-17.7-17.67-20.53-7.66-2.81-15.89-2.75-21.87-9.37-5.5-6.07-1.61-13.25-3.22-20.36-3.34-14.7-15.55-27.28-29.76-31.88-12.15-3.93-24.75-6-33.48-16.38-10.14-12.41-6.42-33,7.18-41.6,5.57-3.83,11.22-6.48,16.06-11.52,8.38-8.74,8.85-15.86,1.78-24.64-2.93-3.64-7.76-13.34-2.39-17.18,5.53-4,13.68-3,16.41-9.74,3.13-7.75-.53-16-1.86-23.65-2.77-14,7.6-28.64,18.84-36,3.84-2.49,8.28-3.39,12.17-5.84,9.6-6,19.56-17.36,20.49-29.13.14-2.07-3.09-10.3-1.48-14s11.65-5.3,12.56-5.57A87.38,87.38,0,0,0,364,135.54,26,26,0,0,0,367.76,141.23ZM54,54H345c-20.8,5.74-38.24,17.58-41,35.93-1.33,8.9,0,16.39,3.54,20.54a8.72,8.72,0,0,0,6.84,3.24c4.69,0,10-3.31,14.9-9.34L333.68,99l.4,6.93c0,.11.57,7.89,3.72,12.26-12.92,3.93-24.37,12.6-20.66,44.76,3.37,29.25-7.23,18.73-16.35,16.34-10.36-2.72-18.74-2.92-14.34,14.44,3.35,13.25-33.74,10.5-19,31.33,5.86,8.3,1.37,24.07-13.67,31.13-11.61,5.45,3.74,36.74,9.19,39.66-9.61-1.62-21.52,2.92-30.06,21.94-15.95,35.5,14.34,110.85,36.8,69.32,4.37-8.07,33.76,13,28.68,24.91-2.54,5.93-4.54,10.79.65,21.57,5.75,11.77,19.08,11.16,30,14.09,10.06,3.45,14.65,13.5,16.72,23.31,1.77,8.2,3,15.5,10.53,20.82,6,4.2,13.07,5.72,19.94,7.76,12.34,3.67,24.65,10.73,28.13,24,2.83,10.84-24.21,2.68,5.62,33.71,8,8.3,20.82,5.59,21.84,19.79a26.55,26.55,0,0,1-4.49,16.9H54Z"/></svg>