<svg id="Layer_2" data-name="Layer 2" xmlns="http://www.w3.org/2000/svg" viewBox="0 0 648 648"><path d="M0,648H648V0H0ZM594,54V594H543l-.24-1c-1.17-5-2.64-10.34-4.26-15.91s-3.59-11.36-5.86-17.32-4.75-12.12-7.59-18.39-6-12.62-9.5-19.06-7.23-12.93-11.31-19.41-8.41-13-12.85-19.55l-3.33-4.91-1.66-2.48-.83-1.25-.78-1.21c-2.1-3.27-4.13-6.7-6.08-10.2-3.93-7-7.63-14.28-11.19-21.69a461.4,461.4,0,0,1-19.08-46c-2.77-7.86-5.3-15.8-7.5-23.79s-4.09-16-5.48-24a178.57,178.57,0,0,1-2.65-23.87c-.15-3.93-.13-7.83.1-11.67l.07-1.44.15-1.39c.09-.92.18-1.84.28-2.76,0-.47.07-.91.15-1.4l.25-1.47c.16-1,.32-1.95.49-2.93l.12-.73.12-.56.31-1.42c.2-.94.4-1.88.61-2.82.38-1.88.89-3.73,1.33-5.58s.95-3.67,1.45-5.48c.26-.91.51-1.81.76-2.71s.55-1.79.82-2.68a201,201,0,0,1,7.52-20.43,180.38,180.38,0,0,1,9.21-18.4A174.32,174.32,0,0,1,467,223.93a127.33,127.33,0,0,1,22.6-24.07c-1,11.83,1.89,21.13,5.83,26.71,3.29,4.65,7.63,7.32,11.9,7.32h0c3.75,0,7.43-2,10.62-5.8,6.14-7.3,19.06-32.09,6.5-104.59-5.35-30.88-25.64-49.89-41.72-60.41A123.27,123.27,0,0,0,466.08,54ZM419.55,164.49q.56,0,1.14,0c7.81,0,18.28-3.78,31.12-11.24l7.79-4.52-4,8.06c-4.64,9.31-4.54,21.2.24,28.92,1.94,3.12,5.5,6.85,11.47,6.85,6.22,0,13.64-4.05,21.46-11.7l6.72-5.44-2.28,8.27c-.48,1.36-.91,2.7-1.29,4l-.89.48-.79.44-1,.57-.47.3-.42.27-.86.57-1.65,1.17-1.62,1.22a135.2,135.2,0,0,0-24.54,25.81,181.12,181.12,0,0,0-20.64,36.29,206.68,206.68,0,0,0-7.81,21.38c-.28.92-.57,1.85-.85,2.79l-.78,2.82c-.53,1.89-1.06,3.79-1.51,5.72s-1,3.84-1.36,5.8l-.63,2.93-.32,1.47-.07.37,0,.19-.06.32-.12.73L425,302.3l-.25,1.47c-.08.49-.12,1.05-.18,1.57-.11,1.06-.21,2.12-.32,3.18l-.16,1.6-.08,1.57c-.24,4.17-.25,8.35-.08,12.54a178.65,178.65,0,0,0,2.92,25.07c1.52,8.32,3.54,16.58,5.86,24.76s5,16.29,7.86,24.29A461.33,461.33,0,0,0,460.55,445c3.71,7.5,7.56,14.85,11.67,22,2,3.57,4.17,7.08,6.45,10.53l.86,1.3.85,1.24,1.72,2.46,3.43,4.88c4.55,6.45,8.93,12.8,13,19.12s8,12.6,11.54,18.83a313.66,313.66,0,0,1,17.81,36.27l1.75,4.31,1.61,4.25c.55,1.4,1,2.8,1.53,4.18l1.46,4.09c1.82,5.42,3.47,10.59,4.82,15.51l0,.07H416.27l.49-.66.78-1.07.75-1.1c.49-.74,1-1.47,1.49-2.22.93-1.53,1.92-3.05,2.79-4.65a104,104,0,0,0,5-10,128.71,128.71,0,0,0,7.28-22.16,178.92,178.92,0,0,0,4-49.94,209.73,209.73,0,0,0-3.08-26.32,184.29,184.29,0,0,0-6.78-26.39q-1.12-3.25-2.39-6.5c-.43-1.08-.9-2.17-1.34-3.25l-1.4-3.17c-1.84-4.11-3.76-8.2-5.49-12.38s-3.46-8.37-5.15-12.58-3.25-8.48-4.72-12.77-2.92-8.6-4.33-12.91q-1-3.25-2-6.5c-.67-2.16-1.27-4.35-1.9-6.52q-3.69-13.05-6.47-26.17a340.53,340.53,0,0,1-6.85-51.88,216.68,216.68,0,0,1,2.65-48.52c.37-1.89.74-3.76,1.13-5.61l.66-2.74c.22-.91.41-1.83.68-2.72s.51-1.78.76-2.66c.12-.44.24-.89.38-1.32l.42-1.3c.29-.87.57-1.73.86-2.58s.62-1.65.92-2.47l.46-1.21c.16-.41.3-.81.5-1.24l1.11-2.5,1.1-2.51c.2-.44.39-.89.59-1.33l.51-1.3c1.38-3.45,2.59-6.76,3.76-10l1.7-4.84c.54-1.61,1.07-3.17,1.57-4.7.25-.78.51-1.55.76-2.32s.52-1.47.77-2.2l.78-2.18c.28-.72.56-1.43.83-2.15,2.22-5.68,4.62-11,6.95-16C417.7,168.37,418.63,166.41,419.55,164.49Zm-61.07-53.42,5.7-5.88-1.09,8.12c0,.2-2.54,19.67,4.67,27.92a10.09,10.09,0,0,0,8,3.47c6.21,0,14.59-3.83,24.9-11.37l5.36-3.92L405,136c0,.16-2.56,15.79,4.27,23.86a13,13,0,0,0,2,1.89c-.77,1.64-1.55,3.32-2.34,5.06-2.34,5.12-4.76,10.63-7.05,16.62-.28.75-.57,1.51-.85,2.27s-.54,1.55-.82,2.33-.55,1.55-.8,2.38-.48,1.57-.73,2.35c-.48,1.6-.94,3.22-1.39,4.82s-.92,3.24-1.38,4.88c-1,3.25-1.91,6.61-3.1,9.82l-.44,1.22-.48,1.15-.48,1.15c-.2.44-.39.88-.58,1.32l-1.1,2.52c-.19.4-.36.87-.53,1.32s-.35.92-.52,1.37c-.34.92-.72,1.85-1,2.76l-.9,2.77-.45,1.39c-.14.47-.27.94-.4,1.41-.26.94-.53,1.88-.79,2.83s-.48,1.91-.71,2.87l-.69,2.9c-.4,1.94-.79,3.91-1.16,5.89-2.79,15.85-3.45,32.78-2.67,50.13a343.46,343.46,0,0,0,7,53,391.91,391.91,0,0,0,15.1,53c1.52,4.35,3.23,8.64,4.88,12.95s3.46,8.54,5.33,12.74,3.77,8.37,5.67,12.53l1.39,3.05c.43,1,.87,2,1.29,3,.83,2.05,1.63,4.11,2.37,6.18a177,177,0,0,1,6.91,25.38,203,203,0,0,1,3.36,25.53,176.74,176.74,0,0,1-3.11,48.5,123.83,123.83,0,0,1-6.58,21.48,96.26,96.26,0,0,1-4.58,9.65c-.8,1.55-1.71,3-2.58,4.5-.45.73-.92,1.44-1.38,2.15l-.68,1.07-.73,1L412,593l-.77,1H394.42q-3.56-5.43-7.43-10.82a291.3,291.3,0,0,0-21.89-26.84q-6-6.55-12.57-12.81c-1.08-1-2.22-2.06-3.32-3.1s-2.25-2.06-3.41-3.08-2.3-2.06-3.44-3l-3.49-3c-9.33-7.76-18.78-15.63-28.19-23.77s-18.83-16.46-28.1-25.1C264,465.26,245.93,446.9,229.75,427a299,299,0,0,1-22.34-31,172.1,172.1,0,0,1-16.52-33.76c-4.07-11.68-6.34-23.87-5.68-35.76.07-1.48.21-3,.37-4.39.08-.71.21-1.58.3-2.24l.36-2.27.37-2.26.4-2.25c.27-1.5.54-3,.84-4.48q1.77-8.94,4.14-17.59a231.42,231.42,0,0,1,27.68-62.75,257.22,257.22,0,0,1,39.06-47.54c6.87-6.65,13.79-12.68,20.56-18.22s13.38-10.55,19.67-15.41A169.63,169.63,0,0,0,316,132c4.94-5,9.23-9.72,13-14.12,2.14-2.52,4.08-4.92,5.86-7.21,1,4.45,3.19,10.43,8,10.43C345.54,121.07,350.46,119.34,358.48,111.07ZM54,54H345c-20.8,5.74-38.24,17.58-41,35.93-1.33,8.9,0,16.39,3.54,20.54a8.72,8.72,0,0,0,6.84,3.24,12.52,12.52,0,0,0,5.09-1.19c-3.16,3.91-6.76,8.07-10.82,12.35q-3.44,3.63-7.35,7.31c-2.62,2.45-5.36,4.85-8.37,7.24-6.12,4.88-12.81,10.1-19.63,15.88s-13.85,12.08-20.83,19a284.57,284.57,0,0,0-20.59,22.81,263.6,263.6,0,0,0-19,26.86,245.87,245.87,0,0,0-28.09,65q-2.4,8.91-4.18,18.13c-.31,1.53-.58,3.07-.84,4.61l-.41,2.32-.36,2.33-.36,2.33c-.12.88-.22,1.55-.32,2.39-.19,1.67-.34,3.28-.42,4.92a89,89,0,0,0,1.16,19.56,118.43,118.43,0,0,0,4.89,19,183.43,183.43,0,0,0,17,35.31A309,309,0,0,0,223.62,432c8.16,10.21,16.81,20,25.73,29.42s18.11,18.52,27.43,27.3,18.81,17.22,28.29,25.41,19,16.08,28.35,23.81l3.45,2.89c1.17,1,2.26,2,3.37,2.91s2.21,1.93,3.29,2.94,2.19,2,3.26,3c4.31,4,8.43,8.09,12.43,12.24a310.9,310.9,0,0,1,22,25.57q2.52,3.27,4.92,6.56H54Z"/></svg>